<?xml version="1.0" encoding="utf-8"?>
<!-- Generator: Adobe Illustrator 17.1.0, SVG Export Plug-In . SVG Version: 6.00 Build 0)  -->
<!DOCTYPE svg PUBLIC "-//W3C//DTD SVG 1.1//EN" "http://www.w3.org/Graphics/SVG/1.1/DTD/svg11.dtd">
<svg version="1.1" id="Layer_1" xmlns="http://www.w3.org/2000/svg" xmlns:xlink="http://www.w3.org/1999/xlink" x="0px" y="0px"
	viewBox="212 320 170 200" xml:space="preserve">
<g>
	<g>
		<linearGradient id="SVGID_1_" gradientUnits="userSpaceOnUse" x1="296.8525" y1="474.085" x2="296.8525" y2="422.8893">
			<stop  offset="0" style="stop-color:#392011"/>
			<stop  offset="1" style="stop-color:#915123"/>
		</linearGradient>
		<path fill="url(#SVGID_1_)" d="M323.4,479.7c8.9,1.6,4.6,13,11.6,7.1s10.9-88,10.2-98.8c-0.7-10.9-3.3-21.8-9.1-30.8
			c-8.6-13.3-24.1-19.8-39.2-19.8c-15.2,0-30.7,6.5-39.2,19.8c-5.8,9-8.4,19.9-9.1,30.8c-0.7,10.9,7.3,93,14.4,98.8
			c7,5.8-1.4-5.5,7.5-7.1H323.4z"/>
		<g>
			<path fill="#E4B295" d="M297.6,488.5c12.8,0,24.7-6.8,34.5-18.3l-16.9-5.3c-2.1-0.6-3.2-2.5-3.6-4.7c-1-6-0.9-21.9-0.9-24.5
				c0-0.2-0.2-0.4-0.4-0.4h-25.5c-0.2,0-0.4,0.2-0.4,0.4c0,2.6,0.1,18.2-0.9,24.5c-0.3,2.1-1.5,4-3.6,4.7l-16.9,5.3
				C272.9,481.7,284.8,488.5,297.6,488.5z"/>
			<path fill="#E4B295" d="M230.9,503.1L230.9,503.1c0,0.2,0.1,0.3,0.2,0.4C231,503.4,230.9,503.2,230.9,503.1z"/>
		</g>
		<g>
			<path fill="#D39E7A" d="M310.8,449.1c-0.1-5.4-0.1-10.6-0.1-12c0-0.2-0.2-0.4-0.4-0.4h-25.5c-0.2,0-0.4,0.2-0.4,0.4
				c0,1.4,0,6.5-0.1,12C292.9,452,302.2,452,310.8,449.1z"/>
		</g>
		<g>
			<path fill="#E4B295" d="M266.8,402.7c2.3,5.5,1,14-2.9,15.6c-3.9,1.6-8.9-4.2-11.2-9.7c-2.3-5.5-1-11.2,2.9-12.9
				C259.5,394.2,264.5,397.3,266.8,402.7z"/>
			<path fill="#E4B295" d="M328.3,402.7c-2.3,5.5-1,14,2.9,15.6c3.9,1.6,8.9-4.2,11.2-9.7c2.3-5.5,1-11.2-2.9-12.9
				C335.6,394.2,330.6,397.3,328.3,402.7z"/>
		</g>
		<path fill="#E4B295" d="M297.6,358.9c-39.1-1.5-39.7,25.8-39.1,38.1c0.4,8.9,3.9,21.9,5.8,28.3c1.1,3.7,3,7.1,5.9,9.8
			c10.2,9.7,27.4,13.1,27.4,13.1s17.2-3.3,27.4-13.1c2.8-2.7,4.8-6.1,5.9-9.8c1.9-6.4,5.4-19.4,5.8-28.3
			C337.3,384.7,336.7,357.4,297.6,358.9z"/>
		<g>
			<polygon fill="#332215" points="317.7,398.4 323.8,396.6 321.4,399.8 			"/>
			<polygon fill="#332215" points="275.9,398.4 269.8,396.6 272.2,399.8 			"/>
		</g>
		<g>
			<ellipse fill="#332215" cx="277.1" cy="400.1" rx="5.1" ry="6"/>
			<ellipse fill="#332215" cx="316.5" cy="400.1" rx="5.1" ry="6"/>
		</g>
		<g>
			<g>
				<path fill="#FFFFFF" stroke="#D7702B" stroke-width="1.9275" stroke-miterlimit="10" d="M283.6,424.7c2.4,5.3,7.7,9,13.9,9
					c6.2,0,11.5-3.7,13.9-9H283.6z"/>
			</g>
		</g>
		<circle fill="#E29F84" cx="271.5" cy="414.5" r="5.7"/>
		<circle fill="#E29F84" cx="321.5" cy="414.5" r="5.7"/>
		<g>
			<path fill="#FCF190" d="M297.8,349.3c-22.8,0-41.2,17.8-41.2,39.8c0,2.4,1.4,6.4,1.4,6.1c5-19.6,28-23.9,39.8-23.9
				c11.8,0,34.5,3.1,39.8,23.9c0.1,0.3,1.4-3.7,1.4-6.1C339,367.1,320.5,349.3,297.8,349.3z"/>
		</g>
		<path fill="#BEC0E2" d="M283.6,460.2C283.6,460.2,283.6,460.2,283.6,460.2c-0.4,2.2-1.5,4.1-3.6,4.7l-29,9c-2.7,0.8-5.2,2-7.5,3.7
			c-11.8,8.7-12.1,22.8-12.6,25.5c0,0.2,0.1,0.4,0.4,0.4h66.3h66.3c0.2,0,0.4-0.2,0.4-0.4c-0.5-2.6-0.6-16-11.6-24.7
			c-2.5-2-5.5-3.5-8.6-4.5l-28.9-9c-2.1-0.6-3.2-2.5-3.6-4.7c0,0,0,0,0-0.1c-4.5,0.1-9.2,0.2-14,0.2
			C292.8,460.4,288.1,460.3,283.6,460.2z"/>
		<line fill="none" stroke="#FCF190" stroke-width="2" stroke-miterlimit="10" x1="297.6" y1="457.8" x2="297.6" y2="503.1"/>
		<g>
			<path fill="#FCF190" d="M297.6,457.8c-4.6,0-9.2-0.2-13.7-0.6c-0.1,1.1-0.2,2.1-0.3,3c4.5,0.1,9.2,0.2,14,0.2
				c4.8,0,9.5-0.1,14-0.2c-0.1-0.8-0.3-1.8-0.4-3C306.7,457.6,302.2,457.8,297.6,457.8z"/>
		</g>
		<g>
			<g>
				<g>
					<path fill="none" stroke="#FFFFFF" stroke-miterlimit="10" d="M260.9,405.5c-4.8,20.6,1.7,43.5,16.6,58.5
						c3.9,3.9,8.3,7.3,11.7,11.6c3.5,4.3,9,9.8,8.1,15.2"/>
					<path fill="none" stroke="#FFFFFF" stroke-miterlimit="10" d="M334.4,405.5c4.8,20.6-1.7,43.5-16.6,58.5
						c-3.9,3.9-8.3,7.3-11.7,11.6c-3.5,4.3-9,9.8-8.1,15.2"/>
				</g>
				<line fill="none" stroke="#FFFFFF" stroke-miterlimit="10" x1="297.7" y1="488.7" x2="297.7" y2="503.7"/>
			</g>
			<g>
				<path fill="#FFFFFF" d="M339.4,406.3c0,2.1-1.7,3.7-3.8,3.7s-2.8-1.7-2.8-3.7c0-2.1,0.7-3.7,2.8-3.7S339.4,404.2,339.4,406.3z"
					/>
				<path fill="#FFFFFF" d="M255.8,406.3c0,2.1,1.7,3.7,3.8,3.7c2.1,0,2.8-1.7,2.8-3.7c0-2.1-0.7-3.7-2.8-3.7
					C257.4,402.5,255.8,404.2,255.8,406.3z"/>
			</g>
		</g>
	</g>
</g>
</svg>
