<?xml version="1.0" encoding="utf-8"?>
<!-- Generator: Adobe Illustrator 17.1.0, SVG Export Plug-In . SVG Version: 6.00 Build 0)  -->
<!DOCTYPE svg PUBLIC "-//W3C//DTD SVG 1.1//EN" "http://www.w3.org/Graphics/SVG/1.1/DTD/svg11.dtd">
<svg version="1.1" id="Layer_1" xmlns="http://www.w3.org/2000/svg" xmlns:xlink="http://www.w3.org/1999/xlink" x="0px" y="0px"
	viewBox="212 320 170 200" xml:space="preserve">
<g>
	<g>
		<path fill="#F9D5B4" d="M363.6,481.5c-3-2.1-6.4-3.6-10-4.6l-3.8-1c0,0,0.1,0,0.1,0l-30-9.7c-2.4-0.6-3.8-2.6-4.2-4.8
			c-1.2-6.2-1.1-21.3-1-24c0-0.2-0.2-0.4-0.4-0.4h-1.4h-29.7h-1.4c-0.2,0-0.4,0.2-0.4,0.4c0,2.7,0.2,17.4-1,24
			c-0.4,2.2-1.8,4.2-4.2,4.8l-30,9.7c0,0,0.1,0,0.1,0l-3.9,1c-3.1,0.9-6.1,2.1-8.7,3.8c-13.7,9-14.1,23.6-14.7,26.4
			c0,0.2,0.2,0.4,0.4,0.4H298h78.7c0.3,0,0.5-0.2,0.4-0.4C376.6,504.4,376.4,490.5,363.6,481.5z"/>
		<g>
			<path fill="#33348B" d="M363.6,481.5c-3-2.1-6.4-3.6-10-4.6l-3.8-1c0,0,0.1,0,0.1,0l-25.8-8.4c-8.1,3.1-16.9,4.8-26.1,4.8
				c-9.3,0-18.1-1.7-26.1-4.8l-25.8,8.4c0,0,0.1,0,0.1,0l-3.9,1c-3.1,0.9-6.1,2.1-8.7,3.8c-13.7,9-14.1,23.6-14.7,26.4
				c0,0.2,0.2,0.4,0.4,0.4H298h78.7c0.3,0,0.5-0.2,0.4-0.4C376.6,504.4,376.4,490.5,363.6,481.5z"/>
		</g>
		<g>
			<path fill="#F2B88C" d="M315.1,455.6c-0.1-7-0.4-13.6-0.4-15.4c0-0.3-0.2-0.5-0.4-0.5h-32.6c-0.2,0-0.4,0.2-0.4,0.5
				c0,1.8-0.3,8.4-0.4,15.4c2.3,2.4,11,5.9,16.8,5.9C303.7,461.6,312.6,457.5,315.1,455.6z"/>
		</g>
		<g>
			<path fill="#F9D5B4" d="M267.3,405.1c2.3,6.2,1,15.8-2.9,17.7c-3.9,1.9-8.9-4.8-11.2-11c-2.3-6.2-1-12.7,2.9-14.6
				C259.9,395.4,265,398.9,267.3,405.1z"/>
			<path fill="#F9D5B4" d="M328.8,405.1c-2.3,6.2-1,15.8,2.9,17.7s8.9-4.8,11.2-11c2.3-6.2,1-12.7-2.9-14.6
				C336.1,395.4,331.1,398.9,328.8,405.1z"/>
		</g>
		<path fill="#F9D5B4" d="M297.7,350.3c-38.8-1.3-39.3,35.8-38.8,48.1c0.4,8.9,2.5,21.9,4.4,28.3c1.1,3.7,3,9.9,5.9,12.6
			c7.6,7.2,17,13.6,22.8,15.8c1,0.4,3.3,0.6,5.7,0.6c2.4,0,4.7-0.2,5.7-0.6c5.8-2.2,15.2-8.6,22.8-15.8c2.8-2.7,4.8-8.9,5.9-12.6
			c1.9-6.4,4-19.4,4.4-28.3C337,386.1,336.4,349,297.7,350.3z"/>
		<g>
			<ellipse fill="#5BC5F2" cx="277.6" cy="401.5" rx="4.8" ry="5.5"/>
			<ellipse fill="#5BC5F2" cx="316.9" cy="401.5" rx="4.8" ry="5.5"/>
		</g>
		<linearGradient id="SVGID_1_" gradientUnits="userSpaceOnUse" x1="288.826" y1="342.3501" x2="293.7574" y2="365.0348">
			<stop  offset="0.3668" style="stop-color:#FFF3D4"/>
			<stop  offset="1" style="stop-color:#F8D161"/>
		</linearGradient>
		<path fill="url(#SVGID_1_)" d="M334.5,366.4c-0.1-0.7-0.3-1.3-0.7-1.9c-6.1-9.8-19-16.9-35.7-16.3c-16.8-0.6-29.7,6.5-35.7,16.3
			c-0.4,0.6-0.6,1.2-0.7,1.9c-4.4,8.4-2.7,18-2.8,25.1c0.3,4.6,1,9.1,2.5,13.2c1.2-6.3,0.8-12.8,2.2-19.1c1.1-4.6,2.6-9.2,4.5-13.6
			c8.2,3.3,18.7,5.2,30.1,5.2c11.4,0,21.9-2,30.1-5.2c1.9,4.4,3.4,8.9,4.5,13.6c1.4,6.3,1,12.8,2.2,19.1c1.4-4.1,2.2-8.6,2.5-13.2
			C337.2,384.5,338.9,374.8,334.5,366.4z"/>
		<linearGradient id="SVGID_2_" gradientUnits="userSpaceOnUse" x1="298.2793" y1="329.4106" x2="302.2245" y2="377.7387">
			<stop  offset="0.3668" style="stop-color:#FFF3D4"/>
			<stop  offset="1" style="stop-color:#F8D161"/>
		</linearGradient>
		<path fill="url(#SVGID_2_)" d="M280.6,375.7c-9-3.5,1.5-18.4,3.2-20c7.1-6.8,19.3-8.4,21.3-20.3c9.7,3.6,17.5,12.2,20,22.3
			c1.1,4.3-2.9,14.8-6.5,17.4C318.6,375,297.4,382.2,280.6,375.7z"/>
	</g>
	<g>
		<g>
			<path fill="#FFFFFF" d="M288,430.1c1.7,3.8,5.5,6.5,10,6.5c4.5,0,8.3-2.7,10-6.5H288z"/>
		</g>
	</g>
</g>
</svg>
