<?xml version="1.0" encoding="utf-8"?>
<!-- Generator: Adobe Illustrator 17.1.0, SVG Export Plug-In . SVG Version: 6.00 Build 0)  -->
<!DOCTYPE svg PUBLIC "-//W3C//DTD SVG 1.1//EN" "http://www.w3.org/Graphics/SVG/1.1/DTD/svg11.dtd">
<svg version="1.1" id="Layer_1" xmlns="http://www.w3.org/2000/svg" xmlns:xlink="http://www.w3.org/1999/xlink" x="0px" y="0px"
	viewBox="212 320 170 200" xml:space="preserve">
<g>
	<g>
		<path fill="#F9D5B4" d="M267.5,404.2c2.3,5.5,1,14-2.9,15.6c-3.9,1.6-8.9-4.2-11.2-9.7c-2.3-5.5-1-11.2,2.9-12.9
			C260.2,395.7,265.2,398.8,267.5,404.2z"/>
		<path fill="#F9D5B4" d="M329,404.2c-2.3,5.5-1,14,2.9,15.6c3.9,1.6,8.9-4.2,11.2-9.7c2.3-5.5,1-11.2-2.9-12.9
			C336.3,395.7,331.3,398.8,329,404.2z"/>
	</g>
	<path fill="#F9D5B4" d="M352.8,479.9c-2.5-2-5.5-3.5-8.6-4.5l-28.9-9l0,0c-2.1-0.6-3.2-2.5-3.6-4.7c-1-6-0.9-21.9-0.9-24.5
		c0-0.2-0.2-0.4-0.4-0.4h-25.5c-0.2,0-0.4,0.2-0.4,0.4c0,2.6,0.1,18.2-0.9,24.5c-0.3,2.1-1.5,4-3.6,4.7l0,0l-29,9
		c-2.7,0.8-5.2,2-7.5,3.7c-11.8,8.7-12.1,22.8-12.6,25.5c0,0.2,0.1,0.4,0.4,0.4h66.3H364c0.2,0,0.4-0.2,0.4-0.4
		C363.9,502,363.7,488.6,352.8,479.9z"/>
	<g>
		<path fill="#F9D5B4" d="M278,490.3c11.1,3.2,17.2,8.7,20.2,12.8c3.1-4.1,9.1-9.6,20.3-12.8c13.9-4,17.9-12.5,19-16.9l-22.3-6.9
			c-2.1-0.6-3.2-2.5-3.6-4.7c-1-6-0.9-21.9-0.9-24.5c0-0.2-0.2-0.4-0.4-0.4h-25.5c-0.2,0-0.4,0.2-0.4,0.4c0,2.6,0.1,18.2-0.9,24.5
			c-0.3,2.1-1.5,4-3.6,4.7l-21.2,6.6C259.9,477.3,263.7,486.2,278,490.3z"/>
		<path fill="#5A8294" d="M352.8,479.9c-2.5-2-5.5-3.5-8.6-4.5l-2.5-0.8v30.1h-43.5h-43.5v-30.4l-3.7,1.2c-2.7,0.8-5.2,2-7.5,3.7
			c-11.8,8.7-12.1,22.8-12.6,25.5c0,0.2,0.1,0.4,0.4,0.4h66.3H364c0.2,0,0.4-0.2,0.4-0.4C363.9,502,363.7,488.6,352.8,479.9z"/>
		<path fill="#E94B39" d="M258.9,472.9l-4.1,1.3v0.1L258.9,472.9C258.9,473,258.9,473,258.9,472.9z"/>
		<path fill="#5A8294" d="M298.3,504.7h43.5v-30.1l-4.2-1.3c-1.1,4.4-5.1,12.9-19,16.9c-11.2,3.2-17.2,8.8-20.3,12.8
			c-3.1-4.1-9.1-9.6-20.2-12.8c-14.3-4.1-18.1-13-19.1-17.3l-4.1,1.3v30.4H298.3z"/>
	</g>
	<g>
		<path fill="#F2B88C" d="M310.9,450.6c-0.1-5.4-0.1-10.6-0.1-12c0-0.2-0.2-0.4-0.4-0.4h-25.5c-0.2,0-0.4,0.2-0.4,0.4
			c0,1.4,0,6.5-0.1,12C293,453.5,302.3,453.5,310.9,450.6z"/>
	</g>
	<path fill="#F9D5B4" d="M297.7,350.4c-39.1-1.5-39.7,35.8-39.1,48.1c0.4,8.9,3.9,21.9,5.8,28.3c1.1,3.7,3,7.1,5.9,9.8
		c10.2,9.7,27.4,13.1,27.4,13.1s17.2-3.3,27.4-13.1c2.8-2.7,4.8-6.1,5.9-9.8c1.9-6.4,5.4-19.4,5.8-28.3
		C337.3,386.6,347.9,348.4,297.7,350.4z"/>
	<g>
		<circle fill="#EE9E86" cx="273.2" cy="416" r="5.7"/>
		<circle fill="#EE9E86" cx="323.3" cy="416" r="5.7"/>
	</g>
	<g>
		<g>
			<ellipse fill="#332215" cx="278.6" cy="401.4" rx="5.1" ry="6"/>
			<ellipse fill="#332215" cx="317.9" cy="401.4" rx="5.1" ry="6"/>
		</g>
		<g>
			<polygon fill="#332215" points="319.1,400.5 325.3,398.7 322.9,402 			"/>
			<polygon fill="#332215" points="277.4,400.5 271.3,398.7 273.6,402 			"/>
		</g>
	</g>
	<g>
		<g>
			<path fill="#FFFFFF" stroke="#EF7E81" stroke-width="1.3835" stroke-miterlimit="10" d="M288.3,427.5c1.7,3.8,5.5,6.5,10,6.5
				c4.5,0,8.3-2.7,10-6.5H288.3z"/>
		</g>
	</g>
</g>
<linearGradient id="SVGID_1_" gradientUnits="userSpaceOnUse" x1="309.2229" y1="393.8784" x2="279.1477" y2="353.3926">
	<stop  offset="0" style="stop-color:#E94B39"/>
	<stop  offset="1" style="stop-color:#993529"/>
</linearGradient>
<path fill="url(#SVGID_1_)" d="M341.8,371.9c-0.2-6.4-2.6-12.8-7-18.1c-6-7.2-15.6-12.6-26.2-14.7c-9.9-1.9-19.4,2-24.2,8.8
	c-0.3-0.2-0.7-0.4-1.1-0.5c-6.4-1.9-13.4,0.1-18.6,5.4c-5.2,5.3-10.9,13.8-10.9,22.5c0,0.9,0,1.7,0,2.5c1.6,5.3,2.9,10.8,4.6,16
	c1.2,3.8,2.6,8.1,4.5,12.1c0.1-0.2,0.2-0.4,0.4-0.6c0-0.1,0-0.2,0-0.3c-0.9-3.2-1.1-6.4-0.8-9.5c-0.1-10.2,2.7-20.7,12.6-24
	c0.4-0.1,5-2.5,7.8-5.3c5.2,11.4,18.8,19.3,32.3,18.6c-2.2-2.8-3.6-6-4.9-9.2c3.3,3,7.4,5.2,11.1,7.7c4.6,3.2,8.9,7.8,8.9,13.3
	c2.2-4.5,3-9.7,2.3-14.7c0.2,0.7,0.3,1.3,0.4,1.9c1.1,8.2,0.6,16.6-1.6,24.5c3.8-6.1,7.5-12.3,9.6-19.2
	C342.5,383.7,343.1,377.5,341.8,371.9z"/>
</svg>
