<?xml version="1.0" encoding="utf-8"?>
<!-- Generator: Adobe Illustrator 17.1.0, SVG Export Plug-In . SVG Version: 6.00 Build 0)  -->
<!DOCTYPE svg PUBLIC "-//W3C//DTD SVG 1.1//EN" "http://www.w3.org/Graphics/SVG/1.1/DTD/svg11.dtd">
<svg version="1.1" id="Layer_1" xmlns="http://www.w3.org/2000/svg" xmlns:xlink="http://www.w3.org/1999/xlink" x="0px" y="0px"
	viewBox="212 320 170 200" xml:space="preserve">
<g>
	<g>
		<g>
			<path fill="#C42E2D" d="M363.7,478c-3-2.1-6.4-3.6-10-4.6l-3.8-1c0,0,0.1,0,0.1,0l-27-8.8h0c-14.2,12.7-35.6,12.7-49.8,0l0,0
				l-27,8.8c0,0,0.1,0,0.1,0l-3.9,1c-3.1,0.9-6.1,2.1-8.7,3.8c-13.7,9-14.1,23.6-14.7,26.4c0,0.2,0.2,0.4,0.4,0.4h78.7h78.7
				c0.3,0,0.5-0.2,0.4-0.4C376.7,500.9,376.5,487,363.7,478z"/>
			<path fill="#E4B295" d="M323,463.6l-3-1c-2.4-0.6-3.8-2.6-4.2-4.8c-1.2-6.2-1.1-21.3-1-24c0-0.2-0.2-0.4-0.4-0.4H313h-29.7h-1.4
				c-0.2,0-0.4,0.2-0.4,0.4c0,2.7,0.2,17.4-1,24c-0.4,2.2-1.8,4.2-4.2,4.8l-3,1l0,0C287.4,476.3,308.8,476.3,323,463.6L323,463.6z"
				/>
		</g>
		<g>
			<g>
				<path fill="#D39E7A" d="M315.2,452.1c-0.1-7-0.4-13.6-0.4-15.4c0-0.3-0.2-0.5-0.4-0.5h-32.6c-0.2,0-0.4,0.2-0.4,0.5
					c0,1.8-0.3,8.4-0.4,15.4c2.3,2.4,11,5.9,16.8,5.9C303.8,458.1,312.7,454.1,315.2,452.1z"/>
			</g>
			<g>
				<path fill="#E4B295" d="M267.4,401.6c2.3,6.2,1,15.8-2.9,17.7c-3.9,1.9-8.9-4.8-11.2-11c-2.3-6.2-1-12.7,2.9-14.6
					C260,392,265.1,395.4,267.4,401.6z"/>
				<path fill="#E4B295" d="M328.9,401.6c-2.3,6.2-1,15.8,2.9,17.7c3.9,1.9,8.9-4.8,11.2-11s1-12.7-2.9-14.6
					S331.2,395.4,328.9,401.6z"/>
			</g>
			<path fill="#E4B295" d="M297.9,348.2c-38.8-1.3-39.3,35.8-38.8,48.1c0.4,8.9,2.5,21.9,4.4,28.3c1.1,3.7,3,9.9,5.9,12.6
				c7.6,7.2,17,13.6,22.8,15.8c1,0.4,3.3,0.6,5.7,0.6c2.4,0,4.7-0.2,5.7-0.6c5.8-2.2,15.2-8.6,22.8-15.8c2.8-2.7,4.8-8.9,5.9-12.6
				c1.9-6.4,4-19.4,4.4-28.3C337.3,384,336.7,346.9,297.9,348.2z"/>
			<g>
				<ellipse fill="#332215" cx="278.5" cy="398" rx="4.8" ry="5.5"/>
				<ellipse fill="#332215" cx="317.8" cy="398" rx="4.8" ry="5.5"/>
			</g>
			<g>
				<g>
					<path fill="#FFFFFF" d="M288.1,427.3c1.7,3.8,5.5,6.5,10,6.5c4.5,0,8.3-2.7,10-6.5H288.1z"/>
				</g>
			</g>
		</g>
		<g>
			<path fill="#392011" d="M288.5,418.2c-1.9,0.8-3.3,2.4-4.8,3.7c-1.5,1.3-3.6,2.5-5.7,2.1c3,2.3,7.1,3.5,11.1,3.2
				c3.1-0.2,9.5-2.7,9.2-6.1C298,417.6,291.6,416.8,288.5,418.2z"/>
			<path fill="#392011" d="M307.7,418.2c1.9,0.8,3.3,2.4,4.8,3.7c1.5,1.3,3.6,2.5,5.7,2.1c-3,2.3-7.1,3.5-11.1,3.2
				c-3.1-0.2-9.5-2.7-9.2-6.1C298.2,417.6,304.6,416.8,307.7,418.2z"/>
		</g>
	</g>
	<path fill="#392011" d="M335.6,363.9c-0.1-0.7-0.3-1.3-0.7-1.9c-6.1-9.8-19-16.9-35.7-16.3c-16.8-0.6-29.7,6.5-35.7,16.3
		c-0.4,0.6-0.6,1.2-0.7,1.9c-4.4,8.4-2.7,18-2.8,25.1c0.3,4.6,1,9.1,2.5,13.2c1.2-6.3,0.8-22.8,2.2-29.1c1.1-4.6,23.1-3.3,34.5-3.3
		c11.4,0,21.9,3,30.1-0.2c1.9,4.4,3.4,8.9,4.5,13.6c1.4,6.3,1,12.8,2.2,19.1c1.4-4.1,2.2-8.6,2.5-13.2
		C338.3,382,340,372.3,335.6,363.9z"/>
</g>
</svg>
