<?xml version="1.0" encoding="utf-8"?>
<!-- Generator: Adobe Illustrator 17.1.0, SVG Export Plug-In . SVG Version: 6.00 Build 0)  -->
<!DOCTYPE svg PUBLIC "-//W3C//DTD SVG 1.1//EN" "http://www.w3.org/Graphics/SVG/1.1/DTD/svg11.dtd">
<svg version="1.1" id="Layer_1" xmlns="http://www.w3.org/2000/svg" xmlns:xlink="http://www.w3.org/1999/xlink" x="0px" y="0px"
	viewBox="212 320 170 200" xml:space="preserve">
<g>
	<g>
		<g>
			
				<linearGradient id="SVGID_1_" gradientUnits="userSpaceOnUse" x1="412.0561" y1="408.8092" x2="412.0561" y2="475.291" gradientTransform="matrix(-1 0 0 1 730.3741 0)">
				<stop  offset="0.1457" style="stop-color:#433A40"/>
				<stop  offset="1" style="stop-color:#676073"/>
			</linearGradient>
			<path fill="url(#SVGID_1_)" d="M340.1,467.4c-0.8,6.3-1.7,12.8-4.4,18.6c-2.7,5.8-7.4,10.9-13.6,12.6c-7.2,2-15.1-1.3-20.3-6.7
				c-5.1-5.4-7.9-12.7-9.5-20c-4.1-18.8-1.1-39.1,8.1-56c4.5-8.2,36.5-46.3,43.6-31c4.3,9.3,0,30.6-0.4,40.9
				C343,439.7,341.8,453.6,340.1,467.4z"/>
			<linearGradient id="SVGID_2_" gradientUnits="userSpaceOnUse" x1="275.187" y1="408.8092" x2="275.187" y2="475.291">
				<stop  offset="0.1457" style="stop-color:#433A40"/>
				<stop  offset="1" style="stop-color:#676073"/>
			</linearGradient>
			<path fill="url(#SVGID_2_)" d="M253.4,467.4c0.8,6.3,1.7,12.8,4.4,18.6c2.7,5.8,7.4,10.9,13.6,12.6c7.2,2,15.1-1.3,20.3-6.7
				c5.1-5.4,7.9-12.7,9.5-20c4.1-18.8,1.1-39.1-8.1-56c-4.5-8.2-36.5-46.3-43.6-31c-4.3,9.3,0,30.6,0.4,40.9
				C250.5,439.7,251.7,453.6,253.4,467.4z"/>
		</g>
		<g>
			<path fill="#433A40" d="M345.2,384c-0.7-9.4-3.3-19-9.1-26.8c-8.6-11.5-24.1-18.3-39.2-18.3c-15.2,0-30.7,6.7-39.2,18.3
				c-5.8,7.8-8.4,17.3-9.1,26.8c-0.2,2.6-0.9,7,0,11.8c4.7,24.4,19.5,42.6,44.7,45.5c1.4,0.2,2.6,0.2,3.6,0.2c1.1,0,2.3-0.1,3.6-0.2
				c25.2-2.8,38.5-19,44.7-45.5C346.3,391,345.4,386.6,345.2,384z"/>
		</g>
		<g>
			<path fill="#F7D9B5" d="M352.7,478.9c-2.5-2-5.5-3.5-8.6-4.5l-28.9-9l0,0c-2.1-0.6-3.2-2.5-3.6-4.7c-1-6-0.9-21.9-0.9-24.5
				c0-0.2-0.2-0.4-0.4-0.4h-25.5c-0.2,0-0.4,0.2-0.4,0.4c0,2.6,0.1,18.2-0.9,24.5c-0.3,2.1-1.5,4-3.6,4.7l0,0l-29,9
				c-2.7,0.8-5.2,2-7.5,3.7c-11.8,8.7-12.1,22.8-12.6,25.5c0,0.2,0.1,0.4,0.4,0.4h66.3h66.3c0.2,0,0.4-0.2,0.4-0.4
				C363.8,501,363.6,487.6,352.7,478.9z"/>
			<path fill="#F7D9B5" d="M352.7,478.9c-2.5-2-5.5-3.5-8.6-4.5l-28.9-9l0,0c-2.1-0.6-3.2-2.5-3.6-4.7c-1-6-0.9-21.9-0.9-24.5
				c0-0.2-0.2-0.4-0.4-0.4h-25.5c-0.2,0-0.4,0.2-0.4,0.4c0,2.6,0.1,18.2-0.9,24.5c-0.3,2.1-1.5,4-3.6,4.7l0,0l-29,9
				c-2.7,0.8-5.2,2-7.5,3.7c-11.8,8.7-12.1,22.8-12.6,25.5c0,0.2,0.1,0.4,0.4,0.4h66.3h66.3c0.2,0,0.4-0.2,0.4-0.4
				C363.8,501,363.6,487.6,352.7,478.9z"/>
			<g>
				<path fill="#EFBC8B" d="M310.8,449.6c-0.1-5.4-0.1-10.6-0.1-12c0-0.2-0.2-0.4-0.4-0.4h-25.5c-0.2,0-0.4,0.2-0.4,0.4
					c0,1.4,0,6.5-0.1,12C292.9,452.5,302.2,452.5,310.8,449.6z"/>
			</g>
			<g>
				<path fill="#F7D9B5" d="M266.8,403.2c2.3,5.5,1,14-2.9,15.6c-3.9,1.6-8.9-4.2-11.2-9.7c-2.3-5.5-1-11.2,2.9-12.9
					C259.5,394.7,264.5,397.8,266.8,403.2z"/>
				<path fill="#F7D9B5" d="M328.3,403.2c-2.3,5.5-1,14,2.9,15.6c3.9,1.6,8.9-4.2,11.2-9.7c2.3-5.5,1-11.2-2.9-12.9
					C335.6,394.7,330.6,397.8,328.3,403.2z"/>
			</g>
			<path fill="#F7D9B5" d="M297.6,349.4c-39.1-1.5-39.7,35.8-39.1,48.1c0.4,8.9,3.9,21.9,5.8,28.3c1.1,3.7,3,7.1,5.9,9.8
				c10.2,9.7,27.4,13.1,27.4,13.1s17.2-3.3,27.4-13.1c2.8-2.7,4.8-6.1,5.9-9.8c1.9-6.4,5.4-19.4,5.8-28.3
				C337.3,385.2,336.7,347.9,297.6,349.4z"/>
			<circle fill="#EFAB84" cx="271.5" cy="415" r="5.7"/>
			<circle fill="#EFAB84" cx="321.5" cy="415" r="5.7"/>
			<g>
				<path fill="#332215" d="M276.6,395.5c3.2,0,5.8,2.5,5.8,5.5s-2.6,5.5-5.8,5.5c-3.2,0-5.8-3.9-5.8-6.9
					C270.8,396.5,273.4,395.5,276.6,395.5z"/>
				<path fill="#332215" d="M318.5,395.5c3.2,0,5.8,1,5.8,4.1c0,3-2.6,6.9-5.8,6.9c-3.2,0-5.8-2.5-5.8-5.5S315.3,395.5,318.5,395.5z
					"/>
			</g>
		</g>
		<g>
			<g>
				<path fill="#FFFFFF" stroke="#D7702B" stroke-width="1.3835" stroke-miterlimit="10" d="M287.6,425.4c1.7,3.8,5.5,6.5,10,6.5
					c4.5,0,8.3-2.7,10-6.5H287.6z"/>
			</g>
		</g>
		<linearGradient id="SVGID_3_" gradientUnits="userSpaceOnUse" x1="301.0452" y1="355.7367" x2="301.0452" y2="378.2884">
			<stop  offset="0.1457" style="stop-color:#433A40"/>
			<stop  offset="1" style="stop-color:#676073"/>
		</linearGradient>
		<path fill="url(#SVGID_3_)" d="M292.9,358.8c-0.1,9.2-0.2,18.4-0.2,27.6c4.3-3.8,8.7-7.6,12-12.3c4.8-6.9,7.9-19.3,0-25.4
			C296.2,342.1,292.9,351.4,292.9,358.8z"/>
		<linearGradient id="SVGID_4_" gradientUnits="userSpaceOnUse" x1="273.0702" y1="362.4057" x2="273.0702" y2="395.7854">
			<stop  offset="0.1457" style="stop-color:#433A40"/>
			<stop  offset="1" style="stop-color:#676073"/>
		</linearGradient>
		<path fill="url(#SVGID_4_)" d="M256.3,387.2c-0.2,7.6,1.1,16.3,7.4,20.6c-2.1-10.8,0-22.2,5.2-31.7c2.8-5.1,21.1-18.8,20.9-22.3
			c-0.6-10.8-19.1-1.8-22.3,1.2C259,363.2,256.6,375.8,256.3,387.2z"/>
		<linearGradient id="SVGID_5_" gradientUnits="userSpaceOnUse" x1="330.2863" y1="366.1781" x2="330.2863" y2="400.026">
			<stop  offset="0.1457" style="stop-color:#433A40"/>
			<stop  offset="1" style="stop-color:#676073"/>
		</linearGradient>
		<path fill="url(#SVGID_5_)" d="M332,412.2c5.5-7.6,9.7-16.4,10.9-25.7c1.1-9.2-0.9-19.3-6.8-26.7c-4.7-5.8-14-12.5-18.1-2.4
			c-3.3,8.1,6.6,17,9.6,24.1C331.6,391.1,333.2,401.8,332,412.2z"/>
		<linearGradient id="SVGID_6_" gradientUnits="userSpaceOnUse" x1="283.7308" y1="356.5726" x2="283.7308" y2="379.9276">
			<stop  offset="0.1457" style="stop-color:#433A40"/>
			<stop  offset="1" style="stop-color:#676073"/>
		</linearGradient>
		<path fill="url(#SVGID_6_)" d="M275.2,364c-4.2,7.3-5.2,16.3-2.6,24.3c0.2-5.4,4.2-9.9,8.4-13.4c4.2-3.4,9-6.3,12.1-10.8
			c3-4.3,5.7-16.5-1.1-17.2C286.4,346.4,277.6,359.9,275.2,364z"/>
		<linearGradient id="SVGID_7_" gradientUnits="userSpaceOnUse" x1="313.7365" y1="353.7516" x2="313.7365" y2="374.0804">
			<stop  offset="0.1457" style="stop-color:#433A40"/>
			<stop  offset="1" style="stop-color:#676073"/>
		</linearGradient>
		<path fill="url(#SVGID_7_)" d="M305.3,360.1c1,3.6,2.7,6.9,4,10.3c1.3,3.4,2.3,7.3,1.7,11c3.5-3.4,7-7,9.3-11.5
			c4.1-8,3.5-20.6-5.2-23.9C307.6,343,303,351.6,305.3,360.1z"/>
		<polygon fill="#E97E7C" points="335.1,470.9 329.7,469.2 329.7,487.4 297.6,496.4 265.5,487.4 265.5,469.2 260,470.9 255.9,504 
			297.2,504 297.9,504 339.2,504 		"/>
	</g>
</g>
</svg>
