<?xml version="1.0" encoding="utf-8"?>
<!-- Generator: Adobe Illustrator 17.1.0, SVG Export Plug-In . SVG Version: 6.00 Build 0)  -->
<!DOCTYPE svg PUBLIC "-//W3C//DTD SVG 1.1//EN" "http://www.w3.org/Graphics/SVG/1.1/DTD/svg11.dtd">
<svg version="1.1" id="Layer_1" xmlns="http://www.w3.org/2000/svg" xmlns:xlink="http://www.w3.org/1999/xlink" x="0px" y="0px"
	viewBox="212 320 170 200" xml:space="preserve">
<g>
	<g>
		<path fill="#D9AB8B" d="M363.6,476.9c-3-2.1-6.4-3.6-10-4.6l-3.8-1c0,0,0.1,0,0.1,0l-30-9.7c-2.4-0.6-3.8-2.6-4.2-4.8
			c-1.2-6.2-1.1-21.3-1-24c0-0.2-0.2-0.4-0.4-0.4h-1.4h-29.7h-1.4c-0.2,0-0.4,0.2-0.4,0.4c0,2.7,0.2,17.4-1,24
			c-0.4,2.2-1.8,4.2-4.2,4.8l-30,9.7c0,0,0.1,0,0.1,0l-3.9,1c-3.1,0.9-6.1,2.1-8.7,3.8c-13.7,9-14.1,23.6-14.7,26.4
			c0,0.2,0.2,0.4,0.4,0.4H298h78.7c0.3,0,0.5-0.2,0.4-0.4C376.6,499.8,376.4,485.9,363.6,476.9z"/>
		<g>
			<path fill="#C1977A" d="M315.1,451c-0.1-7-0.4-13.6-0.4-15.4c0-0.3-0.2-0.5-0.4-0.5h-32.6c-0.2,0-0.4,0.2-0.4,0.5
				c0,1.8-0.3,8.4-0.4,15.4c2.3,2.4,11,5.9,16.8,5.9C303.7,457,312.6,452.9,315.1,451z"/>
		</g>
		<g>
			<path fill="#D9AB8B" d="M267.3,400.5c2.3,6.2,1,15.8-2.9,17.7c-3.9,1.9-8.9-4.8-11.2-11s-1-12.7,2.9-14.6
				C259.9,390.8,265,394.3,267.3,400.5z"/>
			<path fill="#D9AB8B" d="M328.8,400.5c-2.3,6.2-1,15.8,2.9,17.7s8.9-4.8,11.2-11c2.3-6.2,1-12.7-2.9-14.6
				C336.1,390.8,331.1,394.3,328.8,400.5z"/>
		</g>
		<path fill="#D9AB8B" d="M297.7,345.6c-38.8-1.3-39.3,35.8-38.8,48.1c0.4,8.9,2.5,21.9,4.4,28.3c1.1,3.7,3,9.9,5.9,12.6
			c7.6,7.2,17,13.6,22.8,15.8c1,0.4,3.3,0.6,5.7,0.6c2.4,0,4.7-0.2,5.7-0.6c5.8-2.2,15.2-8.6,22.8-15.8c2.8-2.7,4.8-8.9,5.9-12.6
			c1.9-6.4,4-19.4,4.4-28.3C337,381.5,336.4,344.4,297.7,345.6z"/>
		<g>
			<ellipse fill="#332215" cx="277.6" cy="396.8" rx="4.8" ry="5.5"/>
			<ellipse fill="#332215" cx="316.9" cy="396.8" rx="4.8" ry="5.5"/>
		</g>
		<g>
			<path fill="#4EBBB6" d="M349.8,471.2C349.9,471.2,349.9,471.2,349.8,471.2l-25.7-8.4c-5.2,6.1-16.9,14.8-26.1,14.8
				c-9.3,0-20.4-7.8-26.1-14.8l-25.8,8.4c0,0,0.1,0,0.1,0l-1.8,0.5v31.2H298h53.6v-31.2L349.8,471.2z"/>
		</g>
		<g>
			<g>
				<path fill="#FFFFFF" d="M285.3,423.6c2.1,4.7,6.9,8,12.4,8c5.5,0,10.2-3.3,12.4-8H285.3z"/>
			</g>
		</g>
	</g>
</g>
<linearGradient id="SVGID_1_" gradientUnits="userSpaceOnUse" x1="249.6211" y1="376.8405" x2="342.4743" y2="376.8405">
	<stop  offset="0" style="stop-color:#6A260C"/>
	<stop  offset="1" style="stop-color:#915123"/>
</linearGradient>
<path fill="url(#SVGID_1_)" d="M341,372.4c-1.5-6.3-8.5-18.4-15.9-17.5c-1.4-4.6-4.4-8.7-8.3-11.4c-6-4.1-13.5-5-20.5-4.1
	c-11.4,1.5-25.1,5.7-32.6,15c-7.4,9.4-14.5,22.8-14.1,35.1c1.8-2.5,3.7-4.8,5.8-6.8c-0.4,11.2,2.3,22.6,8,31.9
	c-0.4-7.3,0.5-14.6,2.6-21.5c0,3.4,0.6,6.8,1.5,10c-0.3-1,7.2-10.3,9.1-13c0,0.5-0.1,1-0.1,1.5c0-1.2,12.1-8.3,13.7-9.7
	c3.4-2.9,6.5-6,9.4-9.4c-1,1.8-2,3.7-2.8,5.6c-0.8,1.8-3.6,13.3-4.8,13.8c8.7-3.7,16.2-9.8,21.6-17.6c1.2-1.8,2.1-3.7,2.5-5.4
	c0.4,0,0.9-0.1,1.3-0.1c0.1,0.4,0.3,0.8,0.5,1.2c1.3,3.1,3.5,5.8,5.4,8.5c7.2,10.4,10.9,23.3,10.1,36
	C341.9,402.4,344.4,386.7,341,372.4z"/>
</svg>
