<?xml version="1.0" encoding="utf-8"?>
<!-- Generator: Adobe Illustrator 17.1.0, SVG Export Plug-In . SVG Version: 6.00 Build 0)  -->
<!DOCTYPE svg PUBLIC "-//W3C//DTD SVG 1.1//EN" "http://www.w3.org/Graphics/SVG/1.1/DTD/svg11.dtd">
<svg version="1.1" id="Layer_1" xmlns="http://www.w3.org/2000/svg" xmlns:xlink="http://www.w3.org/1999/xlink" x="0px" y="0px"
	viewBox="212 320 170 200" xml:space="preserve">
<linearGradient id="SVGID_1_" gradientUnits="userSpaceOnUse" x1="297.6087" y1="328.208" x2="297.6087" y2="369.3831">
	<stop  offset="0.3263" style="stop-color:#392011"/>
	<stop  offset="0.5159" style="stop-color:#3B2112"/>
	<stop  offset="0.6337" style="stop-color:#412515"/>
	<stop  offset="0.732" style="stop-color:#4B2B18"/>
	<stop  offset="0.8195" style="stop-color:#5A341D"/>
	<stop  offset="0.8998" style="stop-color:#6E3E20"/>
	<stop  offset="0.9739" style="stop-color:#874B22"/>
	<stop  offset="1" style="stop-color:#915123"/>
</linearGradient>
<path fill="url(#SVGID_1_)" d="M318,351.8c0,11.2-9.1,17.4-20.4,17.4c-11.2,0-20.4-6.1-20.4-17.4c0-11.2,9.1-23.4,20.4-23.4
	C308.9,328.4,318,340.5,318,351.8z"/>
<linearGradient id="SVGID_2_" gradientUnits="userSpaceOnUse" x1="298.2871" y1="343.7777" x2="298.2871" y2="439.3401">
	<stop  offset="0.3263" style="stop-color:#392011"/>
	<stop  offset="0.5159" style="stop-color:#3B2112"/>
	<stop  offset="0.6337" style="stop-color:#412515"/>
	<stop  offset="0.732" style="stop-color:#4B2B18"/>
	<stop  offset="0.8195" style="stop-color:#5A341D"/>
	<stop  offset="0.8998" style="stop-color:#6E3E20"/>
	<stop  offset="0.9739" style="stop-color:#874B22"/>
	<stop  offset="1" style="stop-color:#915123"/>
</linearGradient>
<circle fill="url(#SVGID_2_)" cx="298.3" cy="391.5" r="47.3"/>
<g>
	<g>
		<path fill="#D9AB8B" d="M352.7,488c-2.5-2-5.5-3.5-8.6-4.5l-28.9-9h0c-2.1-0.6-3.2-2.5-3.6-4.7c-1-6-0.9-21.9-0.9-24.5
			c0-0.2-0.2-0.4-0.4-0.4h-25.5c-0.2,0-0.4,0.2-0.4,0.4c0,2.6,0.1,18.2-0.9,24.5c-0.3,2.1-1.5,4-3.6,4.7l0,0l-29,9
			c-2.7,0.8-5.2,2-7.5,3.7c-11.8,8.7-12.1,22.8-12.6,25.5c0,0.2,0.1,0.4,0.4,0.4h66.3h66.3c0.2,0,0.4-0.2,0.4-0.4
			C363.8,510.1,363.6,496.7,352.7,488z"/>
		<path fill="#D9AB8B" d="M352.7,488c-2.5-2-5.5-3.5-8.6-4.5l-28.9-9h0c-2.1-0.6-3.2-2.5-3.6-4.7c-1-6-0.9-21.9-0.9-24.5
			c0-0.2-0.2-0.4-0.4-0.4h-25.5c-0.2,0-0.4,0.2-0.4,0.4c0,2.6,0.1,18.2-0.9,24.5c-0.3,2.1-1.5,4-3.6,4.7l0,0l-29,9
			c-2.7,0.8-5.2,2-7.5,3.7c-11.8,8.7-12.1,22.8-12.6,25.5c0,0.2,0.1,0.4,0.4,0.4h66.3h66.3c0.2,0,0.4-0.2,0.4-0.4
			C363.8,510.1,363.6,496.7,352.7,488z"/>
		<g>
			<path fill="#C1977A" d="M310.8,458.7c-0.1-5.4-0.1-10.6-0.1-12c0-0.2-0.2-0.4-0.4-0.4h-25.5c-0.2,0-0.4,0.2-0.4,0.4
				c0,1.4,0,6.5-0.1,12C292.9,461.6,302.2,461.6,310.8,458.7z"/>
		</g>
		<g>
			<path fill="#D9AB8B" d="M266.8,412.3c2.3,5.5,1,14-2.9,15.6c-3.9,1.6-8.9-4.2-11.2-9.7c-2.3-5.5-1-11.2,2.9-12.9
				C259.5,403.8,264.5,406.9,266.8,412.3z"/>
			<path fill="#D9AB8B" d="M328.3,412.3c-2.3,5.5-1,14,2.9,15.6c3.9,1.6,8.9-4.2,11.2-9.7c2.3-5.5,1-11.2-2.9-12.9
				C335.6,403.8,330.6,406.9,328.3,412.3z"/>
		</g>
		<path fill="#D9AB8B" d="M297.6,358.5c-39.1-1.5-39.7,35.8-39.1,48.1c0.4,8.9,3.9,21.9,5.8,28.3c1.1,3.7,3,7.1,5.9,9.8
			c10.2,9.7,27.4,13.1,27.4,13.1s17.2-3.3,27.4-13.1c2.8-2.7,4.8-6.1,5.9-9.8c1.9-6.4,5.4-19.4,5.8-28.3
			C337.3,394.3,336.7,356.9,297.6,358.5z"/>
		<g>
			<ellipse fill="#332215" cx="277.1" cy="409.7" rx="5.1" ry="6"/>
			<ellipse fill="#332215" cx="316.5" cy="409.7" rx="5.1" ry="6"/>
		</g>
		<g>
			<g>
				<path fill="#FFFFFF" stroke="#C54C17" stroke-width="1.9275" stroke-miterlimit="10" d="M283.6,434.3c2.4,5.3,7.7,9,13.9,9
					c6.2,0,11.5-3.7,13.9-9H283.6z"/>
			</g>
		</g>
		<circle fill="#D78673" cx="271.5" cy="424.1" r="5.7"/>
		<circle fill="#D78673" cx="321.5" cy="424.1" r="5.7"/>
		<g>
			<path fill="#EA5180" d="M232.6,503.4c-1.3,4.4-1.5,8.1-1.7,9.3c0,0.2,0.1,0.4,0.4,0.4h66.3h66.3c0.2,0,0.4-0.2,0.4-0.4
				c-0.5-2.6-0.6-16-11.6-24.7c-2.5-2-5.5-3.5-8.6-4.5l-1.2-0.4c-13,8-27.6,14.1-43.4,17.8C280.6,505.4,257.2,506,232.6,503.4z"/>
		</g>
	</g>
</g>
<g>
	<linearGradient id="SVGID_3_" gradientUnits="userSpaceOnUse" x1="256.6061" y1="394.7815" x2="256.6061" y2="413.8369">
		<stop  offset="0.3263" style="stop-color:#392011"/>
		<stop  offset="0.5159" style="stop-color:#3B2112"/>
		<stop  offset="0.6337" style="stop-color:#412515"/>
		<stop  offset="0.732" style="stop-color:#4B2B18"/>
		<stop  offset="0.8195" style="stop-color:#5A341D"/>
		<stop  offset="0.8998" style="stop-color:#6E3E20"/>
		<stop  offset="0.9739" style="stop-color:#874B22"/>
		<stop  offset="1" style="stop-color:#915123"/>
	</linearGradient>
	<path fill="url(#SVGID_3_)" d="M260.7,420.6c0.2-8.6,0.3-17.2,0.5-25.8c0.1-4.1,1.1-12.2-5.8-10.1c-5.6,1.7-3,11-2.2,15.2
		c0.6,3.6,1.6,7.2,2.9,10.7C257,413.1,260.8,418.1,260.7,420.6z"/>
	
		<linearGradient id="SVGID_4_" gradientUnits="userSpaceOnUse" x1="-4.4537" y1="394.7815" x2="-4.4537" y2="413.8369" gradientTransform="matrix(-1 0 0 1 334.07 0)">
		<stop  offset="0.3263" style="stop-color:#392011"/>
		<stop  offset="0.5159" style="stop-color:#3B2112"/>
		<stop  offset="0.6337" style="stop-color:#412515"/>
		<stop  offset="0.732" style="stop-color:#4B2B18"/>
		<stop  offset="0.8195" style="stop-color:#5A341D"/>
		<stop  offset="0.8998" style="stop-color:#6E3E20"/>
		<stop  offset="0.9739" style="stop-color:#874B22"/>
		<stop  offset="1" style="stop-color:#915123"/>
	</linearGradient>
	<path fill="url(#SVGID_4_)" d="M334.4,420.6c-0.2-8.6-0.3-17.2-0.5-25.8c-0.1-4.1-1.1-12.2,5.8-10.1c5.6,1.7,3,11,2.2,15.2
		c-0.6,3.6-1.6,7.2-2.9,10.7C338.1,413.1,334.4,418.1,334.4,420.6z"/>
</g>
<linearGradient id="SVGID_5_" gradientUnits="userSpaceOnUse" x1="297.5649" y1="354.5793" x2="297.5649" y2="398.27">
	<stop  offset="0.3263" style="stop-color:#392011"/>
	<stop  offset="0.5159" style="stop-color:#3B2112"/>
	<stop  offset="0.6337" style="stop-color:#412515"/>
	<stop  offset="0.732" style="stop-color:#4B2B18"/>
	<stop  offset="0.8195" style="stop-color:#5A341D"/>
	<stop  offset="0.8998" style="stop-color:#6E3E20"/>
	<stop  offset="0.9739" style="stop-color:#874B22"/>
	<stop  offset="1" style="stop-color:#915123"/>
</linearGradient>
<path fill="url(#SVGID_5_)" d="M341.2,383.3c0-13.9-18.5-28.5-43.7-28.5c-25.2,0-43.7,14.6-43.7,28.5c0,3.6-0.6,6,1.9,9.1
	c0,0,16.3,5.6,42.7,5.6c23.7,0,40.9-5.6,40.9-5.6C341.9,389.3,341.2,386.9,341.2,383.3z"/>
<g>
	<linearGradient id="SVGID_6_" gradientUnits="userSpaceOnUse" x1="267.9339" y1="437.2466" x2="267.9339" y2="507.4263">
		<stop  offset="0.3263" style="stop-color:#392011"/>
		<stop  offset="0.5159" style="stop-color:#3B2112"/>
		<stop  offset="0.6337" style="stop-color:#412515"/>
		<stop  offset="0.732" style="stop-color:#4B2B18"/>
		<stop  offset="0.8195" style="stop-color:#5A341D"/>
		<stop  offset="0.8998" style="stop-color:#6E3E20"/>
		<stop  offset="0.9739" style="stop-color:#874B22"/>
		<stop  offset="1" style="stop-color:#915123"/>
	</linearGradient>
	<path fill="url(#SVGID_6_)" d="M269.4,453.5c-4.9,6.6-13,9.5-18.6,15.2c-5,5.1-7.8,12.2-7.6,19.3c0.2,7.1,3.3,14.1,8.5,18.9
		c-1.6-5,2.4-10.2,7-12.6c4.7-2.4,10-2.9,14.9-4.7c8.1-2.9,14.8-9.4,18-17.4c1.1-2.8,1.4-9.4,0.5-16c-5.3-1.6-13.4-4.6-19.8-9.7
		C271.5,449.2,270.6,451.8,269.4,453.5z"/>
</g>
</svg>
