<?xml version="1.0" encoding="utf-8"?>
<!-- Generator: Adobe Illustrator 17.1.0, SVG Export Plug-In . SVG Version: 6.00 Build 0)  -->
<!DOCTYPE svg PUBLIC "-//W3C//DTD SVG 1.1//EN" "http://www.w3.org/Graphics/SVG/1.1/DTD/svg11.dtd">
<svg version="1.1" id="Layer_1" xmlns="http://www.w3.org/2000/svg" xmlns:xlink="http://www.w3.org/1999/xlink" x="0px" y="0px"
	viewBox="212 320 170 200" xml:space="preserve">
<g>
	<g>
		<path fill="#87433A" d="M298.3,329.6c33.5,0.5,47.7,22,48.4,49.4c0.7,27.4-8.1,67.7,5.1,78.8c0,0-8.5,3.1-19.2,3.9
			c0,0-5.2-9.7-5.6-14.8c0,0,0.2,13,1.3,16H271c0,0,3.8-10.8,0.5-15.8l-3.3,15.2c0,0-16.5-0.4-24.6-4.9c0,0,7.9-7.2,8.6-14
			c0.7-6.7-6.4-49.1-4.7-67.5C249.1,357.6,255.2,329,298.3,329.6z"/>
		<g>
			<g>
				<path fill="#F5B9A4" d="M342.3,399.7c0,0,5.5-6.2,7.6,0.3c2.1,6.5-0.4,19.2-7.5,21.4c-7.1,2.2-5.7,0.3-5.7,0.3L342.3,399.7z"/>
			</g>
			<g>
				<path fill="#F5B9A4" d="M253,399.7c0,0-5.5-6.2-7.6,0.3c-2.1,6.5,0.4,19.2,7.5,21.4c7.1,2.2,5.7,0.3,5.7,0.3L253,399.7z"/>
			</g>
			<path fill="#E68870" d="M255.8,403.9c2,2.6,2.7,11.2-1.2,10.4s-4.7-5.2-1.7-7.3C254.2,406,254.9,402.7,255.8,403.9z"/>
			<g>
				<g>
					<path fill="#E68870" d="M250.2,413.9c-0.6-1.9-1-3.9-1.2-5.9c-0.1-1.3-0.2-2.8,0.4-4c0.8-1.6,3.2-0.2,4.2,0.4
						c0.8,0.5,1.6-0.8,0.8-1.3c-1.5-0.9-3.4-1.8-5.1-1c-1.3,0.6-1.6,2.3-1.8,3.6c-0.3,2.8,0.5,5.9,1.3,8.6
						C249.1,415.3,250.5,414.9,250.2,413.9L250.2,413.9z"/>
				</g>
			</g>
			<path fill="#E68870" d="M339.8,403.9c-2,2.6-2.7,11.2,1.2,10.4c3.9-0.8,4.7-5.2,1.7-7.3C341.3,406,340.7,402.7,339.8,403.9z"/>
			<g>
				<g>
					<path fill="#E68870" d="M346.7,414.3c0.8-2.7,1.4-5.6,1.3-8.4c-0.1-1.4-0.4-2.9-1.6-3.8c-1.6-1.2-3.9,0.1-5.3,0.9
						c-0.8,0.5-0.1,1.8,0.8,1.3c1-0.6,3.1-1.8,4.1-0.6c0.8,1,0.6,2.7,0.5,3.9c-0.1,2.1-0.6,4.2-1.2,6.2
						C345,414.9,346.5,415.3,346.7,414.3L346.7,414.3z"/>
				</g>
			</g>
			<g>
				<g>
					<path fill="#F5B9A4" d="M332.9,475.5c-8-3.1-18.6-2.1-21.9-5.8c-2.4-2.6-3.4-6.8-3.7-10.8c-7.4,2.7-13.7,2.6-20.1,0
						c-0.4,3.8-1.3,7.9-3.6,10.3c-3.7,3.9-12.8,3-20.5,6.4C286.5,477.4,309.8,477.3,332.9,475.5z"/>
				</g>
				<path fill="#E68870" d="M307.3,458.9c-0.4-5.5,0.4-10.7,0.4-10.7l-20.5,1.2c0,0,0.5,4.5,0.1,9.4
					C293.6,461.5,299.9,461.6,307.3,458.9z"/>
				<path fill="#4B7EB2" d="M254.9,483c-7.5,12.1-5,30-5,30h95.8c0,0,1.4-20.8-5.3-31.6c-1.7-2.8-4.4-4.6-7.4-5.8
					c-23.2,1.8-46.4,2-69.8,0.2C260,477.2,257.1,479.4,254.9,483z"/>
			</g>
			<g>
				<path fill="#F5B9A4" d="M342.9,394.7c-2.8,33.4-20.3,59-45.4,59c-25.1,0-42-26.7-45.4-59c-3.3-32.4,8.8-59,45.4-59
					C331.2,335.8,345.5,362.3,342.9,394.7z"/>
			</g>
			<ellipse fill="#3C4447" cx="320.4" cy="400.5" rx="5.1" ry="9.2"/>
			<ellipse fill="#3C4447" cx="274.7" cy="400.5" rx="5.1" ry="9.2"/>
			<g>
				<g>
					<path fill="#E68870" d="M287.8,429.1c1,4.6,4.5,8.2,9.2,8.4c4.7,0.2,8.4-3.9,9.5-8.1c0.5-1.9-2.4-2.7-2.9-0.8
						c-0.8,3.1-3.2,5.8-6.6,5.9c-3.4,0.2-5.7-3.3-6.3-6.2C290.3,426.5,287.4,427.3,287.8,429.1L287.8,429.1z"/>
				</g>
			</g>
			<g>
				<g>
					<path fill="#AD6548" d="M267.4,383.4c3.9-3.2,10.6-3,15.6-1.6c1.9,0.5,2.7-2.4,0.8-2.9c-6-1.7-13.4-1.8-18.5,2.4
						C263.8,382.5,265.9,384.6,267.4,383.4L267.4,383.4z"/>
				</g>
			</g>
			<g>
				<g>
					<path fill="#AD6548" d="M330.4,381.3c-5.1-4.2-12.5-4.1-18.5-2.4c-1.9,0.5-1.1,3.4,0.8,2.9c4.9-1.4,11.7-1.6,15.6,1.6
						C329.8,384.6,331.9,382.5,330.4,381.3L330.4,381.3z"/>
				</g>
			</g>
			<circle opacity="0.19" fill="#E1454E" cx="322.1" cy="424.3" r="10.4"/>
			<circle opacity="0.19" fill="#E1454E" cx="273.1" cy="424.3" r="10.4"/>
		</g>
		<path fill="#87433A" d="M294.6,331.9c14.9-0.2,36.6,9.6,40.7,17.1c4.1,7.5,6,15.2,8.7,24c0,0-7.9,1.8-17.9,3c0,0-0.3-7.7-3.1-14.5
			c-2.7-6.8-7.5-12-7.5-12s9,14.2,7.5,25.9l-15.8,0.5c0-9.2-0.2-17.3-4.2-25.5l1.3,25.7c0,0-30-0.2-32.6-1.1c0,0-0.8-14.1,1.2-21.1
			c0,0-7.6,16.7-7.4,22.6c0,0-13,1.6-15.2-2.8c-2.2-4.4,1.8-15,8.5-22.9c6.7-8,16-13,16-13L294.6,331.9z"/>
		<g>
			<g>
				<g>
					<path fill="#E1454E" d="M325.6,414.3c-6.8,0-14.1,1.2-18.4-5.4c-2-3-1.5-7-1.5-10.4c0-6.4,4.4-11.2,10.9-11.6
						c6.7-0.4,14.3-0.8,18.4,5.4c2,3,1.5,7,1.5,10.4C336.5,409.1,332.1,413.9,325.6,414.3c-1.4,0.1-1.5,2.3,0,2.2
						c10.9-0.6,14.6-10.8,13-20.4c-1.9-11.8-12.7-11.5-22.1-11.5c-10.9,0-14.5,11.3-13,20.4c1.9,11.8,12.7,11.5,22.1,11.5
						C327.1,416.5,327.1,414.3,325.6,414.3z"/>
				</g>
			</g>
			<g>
				<g>
					<path fill="#E1454E" d="M279.6,414.3c-6.8,0-14.1,1.2-18.4-5.4c-2-3-1.5-7-1.5-10.4c0-6.4,4.4-11.2,10.9-11.6
						c6.7-0.4,14.3-0.8,18.4,5.4c2,3,1.5,7,1.5,10.4C290.5,409.1,286.1,413.9,279.6,414.3c-1.4,0.1-1.5,2.3,0,2.2
						c10.9-0.6,14.6-10.8,13-20.4c-1.9-11.8-12.7-11.5-22.1-11.5c-10.9,0-14.5,11.3-13,20.4c1.9,11.8,12.7,11.5,22.1,11.5
						C281.1,416.5,281.1,414.3,279.6,414.3z"/>
				</g>
			</g>
			<g>
				<g>
					<path fill="#E1454E" d="M292.8,401.9c1.9-2,8.7-2.6,10.3,0.1c0.7,1.2,2.7,0.1,1.9-1.1c-2.4-3.9-10.9-3.6-13.8-0.5
						C290.3,401.4,291.9,403,292.8,401.9L292.8,401.9z"/>
				</g>
			</g>
		</g>
	</g>
</g>
</svg>
