<?xml version="1.0" encoding="utf-8"?>
<!-- Generator: Adobe Illustrator 17.1.0, SVG Export Plug-In . SVG Version: 6.00 Build 0)  -->
<!DOCTYPE svg PUBLIC "-//W3C//DTD SVG 1.1//EN" "http://www.w3.org/Graphics/SVG/1.1/DTD/svg11.dtd">
<svg version="1.1" id="Layer_1" xmlns="http://www.w3.org/2000/svg" xmlns:xlink="http://www.w3.org/1999/xlink" x="0px" y="0px"
	viewBox="212 320 170 200" xml:space="preserve">
<g>
	<g>
		<g>
			<g>
				<g>
					<path fill="#FAD1C5" d="M342.9,403.7c0,0,5.5-6.2,7.6,0.3c2.1,6.5-0.4,19.2-7.5,21.4c-7.1,2.2-5.7,0.3-5.7,0.3L342.9,403.7z"/>
				</g>
				<g>
					<path fill="#FAD1C5" d="M253.6,403.7c0,0-5.5-6.2-7.6,0.3c-2.1,6.5,0.4,19.2,7.5,21.4c7.1,2.2,5.7,0.3,5.7,0.3L253.6,403.7z"/>
				</g>
				<path fill="#F7B8A1" d="M256.3,407.9c2,2.6,2.7,11.2-1.2,10.4c-3.9-0.8-4.7-5.2-1.7-7.3C254.8,410,255.4,406.7,256.3,407.9z"/>
				<g>
					<g>
						<path fill="#F7B8A1" d="M250.8,417.9c-0.6-1.9-1-3.9-1.2-5.9c-0.1-1.3-0.2-2.8,0.4-4c0.8-1.6,3.2-0.2,4.2,0.4
							c0.8,0.5,1.6-0.8,0.8-1.3c-1.5-0.9-3.4-1.8-5.1-1c-1.3,0.6-1.6,2.3-1.8,3.6c-0.3,2.8,0.5,5.9,1.3,8.6
							C249.6,419.3,251.1,418.9,250.8,417.9L250.8,417.9z"/>
					</g>
				</g>
				<path fill="#F7B8A1" d="M340.3,407.9c-2,2.6-2.7,11.2,1.2,10.4c3.9-0.8,4.7-5.2,1.7-7.3C341.9,410,341.2,406.7,340.3,407.9z"/>
				<g>
					<g>
						<path fill="#FAD1C5" d="M308.9,468.6c-0.5-1.8-0.8-3.8-1-5.7c-7.4,2.7-13.7,2.6-20.1,0c-0.2,1.8-0.5,3.6-1,5.3l10.4,5.8
							L308.9,468.6z"/>
					</g>
					<path fill="#F7B8A1" d="M307.9,462.9c-0.4-5.5,0.4-10.7,0.4-10.7l-20.5,1.2c0,0,0.5,4.5,0.1,9.4
						C294.2,465.5,300.5,465.6,307.9,462.9z"/>
					<path fill="#699BCC" d="M255.4,487c-7.5,12.1-5,30-5,30h95.8c0,0,1.4-20.8-5.3-31.6c-6.3-10.2-24.7-6.5-29.3-11.6
						c-1.2-1.4-2.1-3.2-2.7-5.2l-11.6,5.4l-10.4-5.9c-0.6,2-1.4,3.8-2.7,5.1C278.9,478.9,263,474.9,255.4,487z"/>
				</g>
				<g>
					<g>
						<path fill="#F7B8A1" d="M347.3,418.3c0.8-2.7,1.4-5.6,1.3-8.4c-0.1-1.4-0.4-2.9-1.6-3.8c-1.6-1.2-3.9,0.1-5.3,0.9
							c-0.8,0.5-0.1,1.8,0.8,1.3c1-0.6,3.1-1.8,4.1-0.6c0.8,1,0.6,2.7,0.5,3.9c-0.1,2.1-0.6,4.2-1.2,6.2
							C345.6,418.9,347,419.3,347.3,418.3L347.3,418.3z"/>
					</g>
				</g>
				<g>
					<path fill="#FAD1C5" d="M343.4,398.7c-2.8,33.4-20.3,59-45.4,59c-25.1,0-42-26.7-45.4-59c-3.3-32.4,8.8-59,45.4-59
						C331.8,339.8,346.1,366.3,343.4,398.7z"/>
				</g>
				<ellipse fill="#3C4447" cx="321" cy="404.5" rx="5.1" ry="9.2"/>
				<ellipse fill="#3C4447" cx="275.3" cy="404.5" rx="5.1" ry="9.2"/>
				<g>
					<g>
						<path fill="#E68870" d="M288.3,433.1c1,4.6,4.5,8.2,9.2,8.4c4.7,0.2,8.4-3.9,9.5-8.1c0.5-1.9-2.4-2.7-2.9-0.8
							c-0.8,3.1-3.2,5.8-6.6,5.9c-3.4,0.2-5.7-3.3-6.3-6.2C290.8,430.5,287.9,431.3,288.3,433.1L288.3,433.1z"/>
					</g>
				</g>
				<g>
					<g>
						<path fill="#AD6548" d="M268,387.4c3.9-3.2,10.6-3,15.6-1.6c1.9,0.5,2.7-2.4,0.8-2.9c-6-1.7-13.4-1.8-18.5,2.4
							C264.3,386.5,266.5,388.6,268,387.4L268,387.4z"/>
					</g>
				</g>
				<g>
					<g>
						<path fill="#AD6548" d="M331,385.3c-5.1-4.2-12.5-4.1-18.5-2.4c-1.9,0.5-1.1,3.4,0.8,2.9c4.9-1.4,11.7-1.6,15.6,1.6
							C330.3,388.6,332.5,386.5,331,385.3L331,385.3z"/>
					</g>
				</g>
				<circle opacity="0.31" fill="#F7B8A1" cx="322.7" cy="428.3" r="10.4"/>
				<circle opacity="0.31" fill="#F7B8A1" cx="273.7" cy="428.3" r="10.4"/>
			</g>
			<path fill="#AD6548" d="M253.6,403.7c0,0-9.8-47.4,0.7-57c10.5-9.7,17.8-4.9,17.8-4.9s2.4-16.7,31.9-17
				c29.5-0.3,42.7,19.9,43.4,34.7c0.7,14.7-4,39.2-4,39.2c-1-8.8-7.2-31.4-11.6-37.8c-14.5-4.9-35.6-0.6-60.4-4.2
				C268.1,371.1,254.2,382.8,253.6,403.7z"/>
			<g>
				<g>
					<path fill="#87433A" d="M276.5,357c4.2-0.8,8.6-3.4,12.2-5.5c5.6-3.3,11.3-8.2,12.6-14.9c0.4-1.9-2.5-2.7-2.9-0.8
						c-1.2,6.4-6.8,10.5-12.1,13.6c-3.1,1.8-7,4-10.6,4.7C273.8,354.4,274.6,357.3,276.5,357L276.5,357z"/>
				</g>
			</g>
			<g>
				<g>
					<path fill="#87433A" d="M296.5,358c4.2-0.8,8.6-3.4,12.2-5.5c5.6-3.3,11.3-8.2,12.6-14.9c0.4-1.9-2.5-2.7-2.9-0.8
						c-1.2,6.4-6.8,10.5-12.1,13.6c-3.1,1.8-7,4-10.6,4.7C293.8,355.4,294.6,358.3,296.5,358L296.5,358z"/>
				</g>
			</g>
			<g>
				<g>
					<path fill="#87433A" d="M317.1,358c7.5-0.9,16.8-6,18.4-13.9c0.4-1.9-2.5-2.7-2.9-0.8c-1.3,6.6-10,11.1-15.5,11.7
						C315.2,355.3,315.2,358.3,317.1,358L317.1,358z"/>
				</g>
			</g>
		</g>
		<polygon fill="#4B7EB2" points="283.6,474.3 294.1,484.3 297.3,474 300.8,484.4 311.6,474.8 299.9,488.1 297.2,478.5 294.6,487.4 
					"/>
		<circle fill="#4B7EB2" cx="297.6" cy="491.9" r="1.4"/>
		<circle fill="#4B7EB2" cx="297.6" cy="501.9" r="1.4"/>
		<circle fill="#4B7EB2" cx="297.6" cy="512.9" r="1.4"/>
	</g>
</g>
</svg>
