<?xml version="1.0" encoding="utf-8"?>
<!-- Generator: Adobe Illustrator 17.1.0, SVG Export Plug-In . SVG Version: 6.00 Build 0)  -->
<!DOCTYPE svg PUBLIC "-//W3C//DTD SVG 1.1//EN" "http://www.w3.org/Graphics/SVG/1.1/DTD/svg11.dtd">
<svg version="1.1" id="Layer_1" xmlns="http://www.w3.org/2000/svg" xmlns:xlink="http://www.w3.org/1999/xlink" x="0px" y="0px"
	viewBox="212 320 170 200" xml:space="preserve">
<g>
	<g>
		<path fill="#402823" d="M320.7,466.2c0,0,12.9,9.7,22.1,2.8c9.3-6.9,4.2-15.8,4.2-15.8s8.1,8.7,17.1-0.6
			c9.1-9.3-1.1-18.2-1.1-18.2s12,5.3,16-7.4c4-12.7-4.2-16-4.2-16s6.2-0.9,6.2-9.5c0-8.6-12.5-8.5-12.5-8.5l-93.7-21.4l-44.7,20.5
			c0,0-17.8,3.4-7.9,24.9c4.2,9.2,16,6.3,16,6.3s-15.9,0.5-10.7,12.1c5.1,11.6,12.4,5.5,12.4,5.5s-12.8,13.8-2.3,23.1
			c10.5,9.2,18.2-1.9,18.2-1.9s0.8,11.9,11.5,11.6c10.8-0.3,13.4-4.7,13.4-4.7s-0.7,10.5,18.1,10.7
			C321.3,480,320.7,466.2,320.7,466.2z"/>
		<g>
			<g>
				<path fill="#AD6548" d="M343.3,416.7c0,0,5.5-6.2,7.6,0.3c2.1,6.5-0.4,19.2-7.5,21.4c-7.1,2.2-5.7,0.3-5.7,0.3L343.3,416.7z"/>
			</g>
			<g>
				<path fill="#AD6548" d="M254,416.7c0,0-5.5-6.2-7.6,0.3c-2.1,6.5,0.4,19.2,7.5,21.4c7.1,2.2,5.7,0.3,5.7,0.3L254,416.7z"/>
			</g>
			<path fill="#87433A" d="M256.8,420.9c2,2.6,2.7,11.2-1.2,10.4s-4.7-5.2-1.7-7.3C255.2,423,255.9,419.7,256.8,420.9z"/>
			<g>
				<g>
					<path fill="#87433A" d="M251.2,430.9c-0.6-1.9-1-3.9-1.2-5.9c-0.1-1.3-0.2-2.8,0.4-4c0.8-1.6,3.2-0.2,4.2,0.4
						c0.8,0.5,1.6-0.8,0.8-1.3c-1.5-0.9-3.4-1.8-5.1-1c-1.3,0.6-1.6,2.3-1.8,3.6c-0.3,2.8,0.5,5.9,1.3,8.6
						C250.1,432.3,251.5,431.9,251.2,430.9L251.2,430.9z"/>
				</g>
			</g>
			<path fill="#87433A" d="M340.8,420.9c-2,2.6-2.7,11.2,1.2,10.4c3.9-0.8,4.7-5.2,1.7-7.3C342.3,423,341.7,419.7,340.8,420.9z"/>
			<g>
				<g>
					<path fill="#87433A" d="M347.7,431.3c0.8-2.7,1.4-5.6,1.3-8.4c-0.1-1.4-0.4-2.9-1.6-3.8c-1.6-1.2-3.9,0.1-5.3,0.9
						c-0.8,0.5-0.1,1.8,0.8,1.3c1-0.6,3.1-1.8,4.1-0.6c0.8,1,0.6,2.7,0.5,3.9c-0.1,2.1-0.6,4.2-1.2,6.2
						C346,431.9,347.5,432.3,347.7,431.3L347.7,431.3z"/>
				</g>
			</g>
			<g>
				<g>
					<path fill="#AD6548" d="M298.7,502.8c12.3,0,17-9.6,18.5-13.6c-2.3-0.5-4.1-1.2-5.2-2.4c-2.4-2.6-3.4-6.8-3.7-10.8
						c-7.4,2.7-13.7,2.6-20.1,0c-0.4,3.8-1.3,7.9-3.6,10.3c-0.9,0.9-2.1,1.6-3.5,2.1C282.2,492.4,286.3,502.8,298.7,502.8z"/>
				</g>
				<path fill="#87433A" d="M308.3,475.9c-0.4-5.5,0.4-10.7,0.4-10.7l-20.5,1.2c0,0,0.5,4.5,0.1,9.4
					C294.6,478.5,300.9,478.6,308.3,475.9z"/>
				<path fill="#93B048" d="M255.9,500c-7.5,12.1-5,30-5,30h95.8c0,0,1.4-20.8-5.3-31.6c-4.8-7.8-16.7-7.5-24.1-9.1
					c-1.4,4-6.2,13.5-18.5,13.5c-12.4,0-16.5-10.3-17.6-14.4C274.2,491,262.1,489.9,255.9,500z"/>
			</g>
			<g>
				<path fill="#AD6548" d="M343.9,411.7c-2.8,33.4-20.3,59-45.4,59c-25.1,0-42-26.7-45.4-59c-3.3-32.4,8.8-59,45.4-59
					C332.2,352.8,346.5,379.3,343.9,411.7z"/>
			</g>
			<ellipse fill="#402823" cx="321.4" cy="417.5" rx="5.1" ry="9.2"/>
			<ellipse fill="#402823" cx="275.7" cy="417.5" rx="5.1" ry="9.2"/>
			<g>
				<g>
					<path fill="#87433A" d="M288.8,446.1c1,4.6,4.5,8.2,9.2,8.4c4.7,0.2,8.4-3.9,9.5-8.1c0.5-1.9-2.4-2.7-2.9-0.8
						c-0.8,3.1-3.2,5.8-6.6,5.9c-3.4,0.2-5.7-3.3-6.3-6.2C291.3,443.5,288.4,444.3,288.8,446.1L288.8,446.1z"/>
				</g>
			</g>
			<g>
				<g>
					<path fill="#402823" d="M268,399.5c4.6-2.9,10.9-1.8,15.6,0.2c1.8,0.8,3.3-1.8,1.5-2.6c-5.7-2.4-13-3.7-18.7-0.2
						C264.8,397.9,266.3,400.5,268,399.5L268,399.5z"/>
				</g>
			</g>
			<g>
				<g>
					<path fill="#402823" d="M331.2,396.7c-5.7-3.3-13-1.9-18.6,0.7c-1.8,0.8-0.2,3.4,1.5,2.6c4.6-2.2,10.9-3.4,15.6-0.7
						C331.4,400.2,332.9,397.6,331.2,396.7L331.2,396.7z"/>
				</g>
			</g>
			<circle opacity="0.15" fill="#E1454E" cx="323.1" cy="441.3" r="10.4"/>
			<circle opacity="0.15" fill="#E1454E" cx="274.1" cy="441.3" r="10.4"/>
		</g>
		<path fill="#402823" d="M251.3,384.9c0,0-0.3,8.7,8.4,7.6c11.6-1.5,15.8-9.6,15.8-9.6s-3.7,8,6.8,6.9
			c10.5-1.1,15.5-10.3,15.5-10.3s-0.8,10.9,6.2,10.2s12.5-7.7,12.5-7.7s6,9.8,12.3,8.7c6.2-1,5.5-4.5,5.5-4.5s-2.4,17.1,2,18.9
			c4.4,1.8,7.6-0.1,7.6-0.1s5.8,15.7,17.4,9.2c11.7-6.5,10.5-20,10.5-20s11.1-2.5,8.8-12.5c-2.8-12-12.4-7.7-12.4-7.7
			s8.3-5.9,3.1-16.9c-5.2-11-21.1-6.5-21.1-6.5s7.1-15.3-5.3-21.1c-12.4-5.8-19.3,3.1-19.3,3.1s1.7-13.7-12-13.1
			c-13.7,0.6-12,13.6-12,13.6s1.2-20.5-17.3-16.7c-17.5,3.5-13.5,17.1-13.5,17.1s-6.1-17.3-19-8.6c-12.8,8.6-4.4,16.4-4.4,16.4
			s-6.7-8.7-17.3,2.3c-9.5,9.8,3.4,20.3,3.4,20.3s-14.2-1-14.5,16.7c-0.2,12.2,11,11.7,11,11.7s-14.5,5.5-9.9,19.3
			C224.7,425.2,251.3,384.9,251.3,384.9z"/>
	</g>
</g>
</svg>
