<?xml version="1.0" encoding="utf-8"?>
<!-- Generator: Adobe Illustrator 17.1.0, SVG Export Plug-In . SVG Version: 6.00 Build 0)  -->
<!DOCTYPE svg PUBLIC "-//W3C//DTD SVG 1.1//EN" "http://www.w3.org/Graphics/SVG/1.1/DTD/svg11.dtd">
<svg version="1.1" id="Layer_1" xmlns="http://www.w3.org/2000/svg" xmlns:xlink="http://www.w3.org/1999/xlink" x="0px" y="0px"
	viewBox="212 320 170 200" xml:space="preserve">
<g>
	<g>
		<g>
			<path fill="#87433A" d="M249.2,377.6c-0.2,0.2-4.9,47.4,47.8,47.4c52.7,0,50-51.6,50-51.6l-70.3-22.7L249.2,377.6z"/>
			<g>
				<g>
					<path fill="#FAD1C5" d="M343.3,400.7c0,0,5.5-6.2,7.6,0.3c2.1,6.5-0.4,19.2-7.5,21.4c-7.1,2.2-5.7,0.3-5.7,0.3L343.3,400.7z"/>
				</g>
				<g>
					<path fill="#FAD1C5" d="M254,400.7c0,0-5.5-6.2-7.6,0.3c-2.1,6.5,0.4,19.2,7.5,21.4c7.1,2.2,5.7,0.3,5.7,0.3L254,400.7z"/>
				</g>
				<path fill="#F7B8A1" d="M256.8,404.9c2,2.6,2.7,11.2-1.2,10.4s-4.7-5.2-1.7-7.3C255.2,407,255.9,403.7,256.8,404.9z"/>
				<g>
					<g>
						<path fill="#F7B8A1" d="M251.2,414.9c-0.6-1.9-1-3.9-1.2-5.9c-0.1-1.3-0.2-2.8,0.4-4c0.8-1.6,3.2-0.2,4.2,0.4
							c0.8,0.5,1.6-0.8,0.8-1.3c-1.5-0.9-3.4-1.8-5.1-1c-1.3,0.6-1.6,2.3-1.8,3.6c-0.3,2.8,0.5,5.9,1.3,8.6
							C250.1,416.3,251.5,415.9,251.2,414.9L251.2,414.9z"/>
					</g>
				</g>
				<path fill="#F7B8A1" d="M340.8,404.9c-2,2.6-2.7,11.2,1.2,10.4c3.9-0.8,4.7-5.2,1.7-7.3C342.3,407,341.7,403.7,340.8,404.9z"/>
				<g>
					<g>
						<path fill="#F7B8A1" d="M347.7,415.3c0.8-2.7,1.4-5.6,1.3-8.4c-0.1-1.4-0.4-2.9-1.6-3.8c-1.6-1.2-3.9,0.1-5.3,0.9
							c-0.8,0.5-0.1,1.8,0.8,1.3c1-0.6,3.1-1.8,4.1-0.6c0.8,1,0.6,2.7,0.5,3.9c-0.1,2.1-0.6,4.2-1.2,6.2
							C346,415.9,347.5,416.3,347.7,415.3L347.7,415.3z"/>
					</g>
				</g>
				<g>
					<g>
						<path fill="#FAD1C5" d="M298.1,474.8c7.5-0.4,12-2.8,13.9-4c0,0,0,0,0,0c-2.4-2.6-3.4-6.8-3.7-10.8c-7.4,2.7-13.7,2.6-20.1,0
							c-0.4,3.7-1.3,7.7-3.5,10.1C286.3,471.8,290.5,475.2,298.1,474.8z"/>
					</g>
					<path fill="#E68870" d="M255.9,484c-7.5,12.1-5,30-5,30h95.8c0,0,1.4-20.8-5.3-31.6c-6.3-10.2-24.6-6.5-29.3-11.5
						c-1.9,1.3-6.4,3.6-13.9,4c-7.7,0.4-11.8-3-13.4-4.8c0,0.1-0.1,0.2-0.1,0.3C279.3,475.9,263.4,471.9,255.9,484z"/>
					<path fill="#F7B8A1" d="M308.3,459.9c-0.4-5.5,0.4-10.7,0.4-10.7l-20.5,1.2c0,0,0.5,4.5,0.1,9.4
						C294.6,462.5,300.9,462.6,308.3,459.9z"/>
				</g>
				<g>
					<path fill="#FAD1C5" d="M343.9,395.7c-2.8,33.4-20.3,59-45.4,59c-25.1,0-42-26.7-45.4-59c-3.3-32.4,8.8-59,45.4-59
						C332.2,336.8,346.5,363.3,343.9,395.7z"/>
				</g>
				<ellipse fill="#899F7B" cx="321.4" cy="401.5" rx="5.1" ry="9.2"/>
				<ellipse fill="#899F7B" cx="275.7" cy="401.5" rx="5.1" ry="9.2"/>
				<g>
					<g>
						<path fill="#E68870" d="M288.8,430.1c1,4.6,4.5,8.2,9.2,8.4c4.7,0.2,8.4-3.9,9.5-8.1c0.5-1.9-2.4-2.7-2.9-0.8
							c-0.8,3.1-3.2,5.8-6.6,5.9c-3.4,0.2-5.7-3.3-6.3-6.2C291.3,427.5,288.4,428.3,288.8,430.1L288.8,430.1z"/>
					</g>
				</g>
				<g>
					<g>
						<path fill="#87433A" d="M269.4,385.5c-0.8,0.7,0,0,0.3-0.2c0.8-0.5,1.7-0.9,2.6-1.2c3.7-1.3,7.5-0.9,11.2,0.1
							c3.7,1.1,5.3-4.7,1.6-5.8c-6.6-1.9-14.4-1.7-19.9,2.8C262.2,383.7,266.5,387.9,269.4,385.5L269.4,385.5z"/>
					</g>
				</g>
				<g>
					<g>
						<path fill="#87433A" d="M332.5,381.2c-5.5-4.5-13.4-4.7-19.9-2.8c-3.7,1.1-2.1,6.9,1.6,5.8c3.5-1,7-1.3,10.6-0.4
							c1,0.3,2,0.7,2.9,1.2c0.3,0.2,1.5,1.1,0.6,0.4C331.2,387.9,335.5,383.7,332.5,381.2L332.5,381.2z"/>
					</g>
				</g>
				<circle opacity="0.31" fill="#F7B8A1" cx="323.1" cy="425.3" r="10.4"/>
				<circle opacity="0.31" fill="#F7B8A1" cx="274.1" cy="425.3" r="10.4"/>
			</g>
			<path fill="#87433A" d="M247,379.9c0,0-4.1-21.9,7.7-31.1c11.8-9.3,20.6-6.1,20.6-6.1s-2.1-7.9,19.9-10.7
				c22-2.8,44.5,11.8,48,22.8c3.5,11,9.4,21,9.4,21l-30.9-0.5c0,0-14.5-5-15.8-12.5c0,0,0.1,8.7,8.1,12c0,0-9.8,4.9-18.8-1.9
				c-9-6.8-16.3-19.2-16.3-19.2l-18.1,23.9L247,379.9z"/>
		</g>
		<g>
			<path fill="#87433A" d="M341,412.6c-3.4,14.7-25.8,18.4-26.2,16.3c0,0-3-8.2-15.9-8.2c-12.9,0-16.9,8.6-16.9,8.6
				c-15.3,1.9-25.5-16-25.5-16s-2,15.6,8,28.3c9.1,11.7,22.8,15.4,34.8,15.4c12,0,23.6-4.1,33.4-14.3
				C342.9,431.8,341,412.6,341,412.6z M298.4,441.4c-6.9,0-12.6-3.7-12.6-8.2s5.6-8.2,12.6-8.2c6.9,0,12.6,3.7,12.6,8.2
				S305.4,441.4,298.4,441.4z"/>
		</g>
	</g>
</g>
</svg>
