<?xml version="1.0" encoding="utf-8"?>
<!-- Generator: Adobe Illustrator 17.1.0, SVG Export Plug-In . SVG Version: 6.00 Build 0)  -->
<!DOCTYPE svg PUBLIC "-//W3C//DTD SVG 1.1//EN" "http://www.w3.org/Graphics/SVG/1.1/DTD/svg11.dtd">
<svg version="1.1" id="Layer_1" xmlns="http://www.w3.org/2000/svg" xmlns:xlink="http://www.w3.org/1999/xlink" x="0px" y="0px"
	 viewBox="0 0 595.3 841.9" enable-background="new 0 0 595.3 841.9" xml:space="preserve">
<g>
	<g>
		<g>
			<path fill="#C68458" d="M363.7,484.5c-3-2.1-6.4-3.6-10-4.6l-3.8-1c0,0,0.1,0,0.1,0l-30-9.7c-2.4-0.6-3.8-2.6-4.2-4.8
				c-1.2-6.2-1.1-21.3-1-24c0-0.2-0.2-0.4-0.4-0.4H313h-29.7h-1.4c-0.2,0-0.4,0.2-0.4,0.4c0,2.7,0.2,17.4-1,24
				c-0.4,2.2-1.8,4.2-4.2,4.8l-30,9.7c0,0,0.1,0,0.1,0l-3.9,1c-3.1,0.9-6.1,2.1-8.7,3.8c-13.7,9-14.1,23.6-14.7,26.4
				c0,0.2,0.2,0.4,0.4,0.4h78.7h78.7c0.3,0,0.5-0.2,0.4-0.4C376.7,507.4,376.5,493.5,363.7,484.5z"/>
			<g>
				<path fill="#5A519D" d="M363.7,484.5c-3-2.1-6.4-3.6-10-4.6l-3.8-1c0,0,0.1,0,0.1,0l-25.8-8.4c-8.1,3.1-16.9,4.8-26.1,4.8
					c-9.3,0-18.1-1.7-26.1-4.8l-25.8,8.4c0,0,0.1,0,0.1,0l-3.9,1c-3.1,0.9-6.1,2.1-8.7,3.8c-13.7,9-14.1,23.6-14.7,26.4
					c0,0.2,0.2,0.4,0.4,0.4h78.7h78.7c0.3,0,0.5-0.2,0.4-0.4C376.7,507.4,376.5,493.5,363.7,484.5z"/>
			</g>
			<g>
				<path fill="#A66B43" d="M315.2,458.6c-0.1-7-0.4-13.6-0.4-15.4c0-0.3-0.2-0.5-0.4-0.5h-32.6c-0.2,0-0.4,0.2-0.4,0.5
					c0,1.8-0.3,8.4-0.4,15.4c2.3,2.4,11,5.9,16.8,5.9C303.8,464.6,312.7,460.5,315.2,458.6z"/>
			</g>
			<g>
				<path fill="#C68458" d="M267.4,408.1c2.3,6.2,1,15.8-2.9,17.7c-3.9,1.9-8.9-4.8-11.2-11c-2.3-6.2-1-12.7,2.9-14.6
					C260,398.4,265.1,401.9,267.4,408.1z"/>
				<path fill="#C68458" d="M328.9,408.1c-2.3,6.2-1,15.8,2.9,17.7c3.9,1.9,8.9-4.8,11.2-11s1-12.7-2.9-14.6
					C336.2,398.4,331.2,401.9,328.9,408.1z"/>
			</g>
			<path fill="#C68458" d="M297.8,353.3c-38.8-1.3-39.3,35.8-38.8,48.1c0.4,8.9,2.5,21.9,4.4,28.3c1.1,3.7,3,9.9,5.9,12.6
				c7.6,7.2,17,13.6,22.8,15.8c1,0.4,3.3,0.6,5.7,0.6c2.4,0,4.7-0.2,5.7-0.6c5.8-2.2,15.2-8.6,22.8-15.8c2.8-2.7,4.8-8.9,5.9-12.6
				c1.9-6.4,4-19.4,4.4-28.3C337.1,389.1,336.5,352,297.8,353.3z"/>
			<g>
				<ellipse fill="#332215" cx="277.7" cy="404.5" rx="4.8" ry="5.5"/>
				<ellipse fill="#332215" cx="317" cy="404.5" rx="4.8" ry="5.5"/>
			</g>
			<g>
				<g>
					<path fill="#FFFFFF" d="M285.7,430.9c2.1,5.3,6.9,9,12.4,9c5.5,0,10.2-3.7,12.4-9H285.7z"/>
				</g>
			</g>
		</g>
		<g>
			<g>
				<g>
					<path fill="#392011" d="M263.6,389.8c1.6-7.2,4.3-14.3,8-20.7c-1.2-1.7-3.3-2.1-5.3-1.6c-5.9,9-7.3,20.3-7.4,28.2
						c0.3,4.6,1,9.1,2.5,13.2C262.5,402.6,262.1,396.1,263.6,389.8z"/>
				</g>
			</g>
			<g>
				<g>
					<path fill="#392011" d="M332.7,389.8c-1.6-7.2-4.3-14.3-8-20.7c1.2-1.7,3.3-2.1,5.3-1.6c5.9,9,7.3,20.3,7.4,28.2
						c-0.3,4.6-1,9.1-2.5,13.2C333.7,402.6,334.1,396.1,332.7,389.8z"/>
				</g>
			</g>
		</g>
		
			<linearGradient id="SVGID_1_" gradientUnits="userSpaceOnUse" x1="298.1161" y1="373.3696" x2="298.1161" y2="331.5839" gradientTransform="matrix(-1 0 0 1 596.2323 0)">
			<stop  offset="0" style="stop-color:#392011"/>
			<stop  offset="0.7085" style="stop-color:#915123"/>
			<stop  offset="1" style="stop-color:#A7732F"/>
		</linearGradient>
		<path fill="url(#SVGID_1_)" d="M261.7,369.2c0.1-0.7,0.3-1.3,0.7-1.9c1.5-2.4,3.3-4.6,5.6-6.6c0-2.2,0.9-4.6,2-6.6
			c5.3-9.4,13.5-17.1,23.2-21.8c0.1,5.3,4.2,9.7,8.8,12.3c4.6,2.7,9.7,4.2,14.2,7.1c1.1,0.7,3.2,2.3,4.8,4.1
			c5.6,2.9,10,6.9,12.9,11.6c0.4,0.6,0.6,1.2,0.7,1.9c4.4,8.4,3.7,18,3.8,25.1c-0.3,4.6-2.1,17.5-3.5,21.5
			c-1.2-6.3-0.8-21.1-2.2-27.4c-1.1-4.6-2.5-9.2-4.5-13.6c-9.6-10.1-49.7-9.6-60.2,0c-1.9,4.4-3.4,8.9-4.5,13.6
			c-1.4,6.3-1,21.1-2.2,27.4c-1.4-4.1-3.2-16.9-3.5-21.5C258,387.3,257.3,377.6,261.7,369.2z"/>
	</g>
</g>
</svg>
