<?xml version="1.0" encoding="utf-8"?>
<!-- Generator: Adobe Illustrator 17.1.0, SVG Export Plug-In . SVG Version: 6.00 Build 0)  -->
<!DOCTYPE svg PUBLIC "-//W3C//DTD SVG 1.1//EN" "http://www.w3.org/Graphics/SVG/1.1/DTD/svg11.dtd">
<svg version="1.1" id="Layer_1" xmlns="http://www.w3.org/2000/svg" xmlns:xlink="http://www.w3.org/1999/xlink" x="0px" y="0px"
	 viewBox="0 0 595.3 841.9" enable-background="new 0 0 595.3 841.9" xml:space="preserve">
<g>
	<g>
		<linearGradient id="SVGID_1_" gradientUnits="userSpaceOnUse" x1="272.2919" y1="440.384" x2="272.2919" y2="405.2709">
			<stop  offset="0.1457" style="stop-color:#433A40"/>
			<stop  offset="1" style="stop-color:#676073"/>
		</linearGradient>
		<path fill="url(#SVGID_1_)" d="M269.4,350.5c-23.8,17.7-16.3,43.3-12.8,64.7c0.9,5.4,2.2,10.9,2,16.4c-0.2,5.5-2.1,11.3-6.6,14.6
			c5.9,0.9,12.1-1,16.4-5.1c-0.2,3.5-0.5,7-0.7,10.5c3.6-1.4,7.2-2.9,10.8-4.3c1.5,4.2,3,8.4,4.4,12.5c8-5.7,9.5-16.8,9.4-26.6
			c-0.1-25.7-6-51.4-17.1-74.7"/>
		
			<linearGradient id="SVGID_2_" gradientUnits="userSpaceOnUse" x1="762.8105" y1="440.384" x2="762.8105" y2="405.2709" gradientTransform="matrix(-1 0 0 1 1085.1324 0)">
			<stop  offset="0.1457" style="stop-color:#433A40"/>
			<stop  offset="1" style="stop-color:#676073"/>
		</linearGradient>
		<path fill="url(#SVGID_2_)" d="M325.2,350.5c23.8,17.7,16.3,43.3,12.8,64.7c-0.9,5.4-2.2,10.9-2,16.4c0.2,5.5,2.1,11.3,6.6,14.6
			c-5.9,0.9-12.1-1-16.4-5.1c0.2,3.5,0.5,7,0.7,10.5c-3.6-1.4-7.2-2.9-10.8-4.3c-1.5,4.2-3,8.4-4.4,12.5c-8-5.7-9.5-16.8-9.4-26.6
			c0.1-25.7,6-51.4,17.1-74.7"/>
		<path fill="#F7D9B5" d="M363.3,478.1c-3-2.1-6.4-3.6-10-4.6l-3.8-1c0,0,0.1,0,0.1,0l-30-9.7c-2.4-0.6-3.8-2.6-4.2-4.8
			c-1.2-6.2-1.1-21.3-1-24c0-0.2-0.2-0.4-0.4-0.4h-1.4h-29.7h-1.4c-0.2,0-0.4,0.2-0.4,0.4c0,2.7,0.1,17.4-1,24
			c-0.4,2.2-1.8,4.2-4.2,4.8l-30,9.7c0,0,0.1,0,0.1,0l-3.9,1c-3.1,0.9-6.1,2.1-8.7,3.8c-13.7,9-14.1,23.6-14.7,26.4
			c0,0.2,0.2,0.4,0.4,0.4h78.7h78.7c0.3,0,0.5-0.2,0.4-0.4C376.2,501,376,487.1,363.3,478.1z"/>
		<g>
			<g>
				<path fill="#EFBC8B" d="M314.8,452.2c-0.1-7-0.4-13.6-0.4-15.4c0-0.3-0.2-0.5-0.4-0.5h-32.6c-0.2,0-0.4,0.2-0.4,0.5
					c0,1.8-0.3,8.4-0.4,15.4c2.3,2.4,11,5.9,16.8,5.9C303.3,458.2,312.3,454.1,314.8,452.2z"/>
			</g>
			<g>
				<path fill="#F7D9B5" d="M266.9,401.7c2.3,6.2,1,15.8-2.9,17.7s-8.9-4.8-11.2-11c-2.3-6.2-1-12.7,2.9-14.6
					C259.6,392,264.6,395.5,266.9,401.7z"/>
				<path fill="#F7D9B5" d="M328.4,401.7c-2.3,6.2-1,15.8,2.9,17.7c3.9,1.9,8.9-4.8,11.2-11c2.3-6.2,1-12.7-2.9-14.6
					C335.7,392,330.7,395.5,328.4,401.7z"/>
			</g>
			<path fill="#F7D9B5" d="M297.3,346.9c-38.8-1.3-39.3,35.8-38.8,48.1c0.4,8.9,2.5,21.9,4.4,28.3c1.1,3.7,3,9.9,5.9,12.6
				c7.6,7.2,17,13.6,22.8,15.8c1,0.4,3.3,0.6,5.7,0.6c2.4,0,4.7-0.2,5.7-0.6c5.8-2.2,15.2-8.6,22.8-15.8c2.8-2.7,4.8-8.9,5.9-12.6
				c1.9-6.4,4-19.4,4.4-28.3C336.6,382.7,336.1,345.6,297.3,346.9z"/>
			<g>
				<path fill="#332215" d="M278.1,393c3,0,5.4,2.3,5.4,5.1s-2.4,5.1-5.4,5.1c-3,0-5.4-3.6-5.4-6.5C272.6,393.9,275.1,393,278.1,393
					z"/>
				<path fill="#332215" d="M317.2,393c3,0,5.4,1,5.4,3.8c0,2.8-2.4,6.5-5.4,6.5c-3,0-5.4-2.3-5.4-5.1S314.2,393,317.2,393z"/>
			</g>
			<g>
				<path fill="#C0D8E3" d="M363.3,477.9c-3-2.1-6.4-3.6-10-4.6l-3.8-1c0,0,0.1,0,0.1,0l-26.9-8.8l-3-1c-0.8-0.2-1.4-0.5-1.9-1
					c-5.9,2.2-12.3,3.3-19.3,3.3c2.8,0,4.2,0,6.9,1.4c-10.1,1.1-22,3.1-28.4-4.2c-0.4,0.2-0.8,0.4-1.2,0.5l-3,1l-26.9,8.8
					c0,0,0.1,0,0.1,0l-3.9,1c-3.1,0.9-6.1,2.1-8.7,3.8c-13.7,9-14.1,23.6-14.7,26.4c0,0.2,0.2,0.4,0.4,0.4h78.7h78.7
					c0.3,0,0.5-0.2,0.4-0.4C376.2,500.8,376,486.9,363.3,477.9z"/>
				<path fill="#C94431" d="M291.5,478.8l-6.1-13.4H310l-6.1,13.4C301.1,483.6,294.2,483.6,291.5,478.8z"/>
				<path fill="#C94431" d="M303.5,483.8l6.1,20.3H285l6.1-20.3C293.9,479,300.7,479,303.5,483.8z"/>
				<g>
					<path fill="#EAEAEA" d="M279.5,456.2l-6.2,4.2l13.2,19.8l12.2-15.1C298.8,465.1,280.4,460.4,279.5,456.2z"/>
					<path fill="#EAEAEA" d="M315.9,456.2l6.2,4.2l-13.2,19.8l-12.2-15.1C296.6,465.1,315,460.4,315.9,456.2z"/>
				</g>
			</g>
			
				<path fill="none" stroke="#D7935F" stroke-width="1.7777" stroke-linecap="round" stroke-linejoin="round" stroke-miterlimit="10" d="
				M287.3,426.3c1.7,2.4,5.5,4.2,10,4.2c4.4,0,8.3-1.7,10-4.2"/>
		</g>
		<linearGradient id="SVGID_3_" gradientUnits="userSpaceOnUse" x1="328.378" y1="341.5246" x2="328.378" y2="375.88">
			<stop  offset="0.1457" style="stop-color:#501D1F"/>
			<stop  offset="1" style="stop-color:#7D4F51"/>
		</linearGradient>
		<path fill="url(#SVGID_3_)" d="M332.2,411.4c0.7-12.7-2.9-25.5-10.1-36c-1.9-2.8-4.1-5.4-5.4-8.5c-1.3-3.1-1.7-6.9,0.1-9.7
			c9.3-14.8,21,3.6,22.9,12C343.1,383.4,340.6,399.2,332.2,411.4z"/>
		<linearGradient id="SVGID_4_" gradientUnits="userSpaceOnUse" x1="289.9741" y1="341.5246" x2="289.9741" y2="375.8801">
			<stop  offset="0.1457" style="stop-color:#501D1F"/>
			<stop  offset="1" style="stop-color:#7D4F51"/>
		</linearGradient>
		<path fill="url(#SVGID_4_)" d="M317.2,341.8c-6.2-3.6-14-4.4-21.3-3.6c-11.8,1.3-23.1,6.7-30.8,14.9c-7.8,8.1-12,18.9-11.6,29.6
			c1.2-1.1,2.5-2.1,3.7-3.1c-0.4,11.2,2.3,22.5,8,31.7c-0.7-12.7,1.6-25.5,8.1-36c1.6-2.5,4.3-4.9,5.5-7.6c0.8-0.3-4.5,7.6-4.4,18.6
			c0-1.2,12.1-8.3,13.7-9.7c3.6-3.1,6.9-6.4,10-10c-1.6,2.6-3.1,5.4-4.4,8.2c-0.8,1.8-3.6,13.3-4.8,13.8
			c8.7-3.7,36.4-17.7,37.6-30.1C327.1,352,323.4,345.3,317.2,341.8z"/>
	</g>
</g>
</svg>
