<?xml version="1.0" encoding="utf-8"?>
<!-- Generator: Adobe Illustrator 17.1.0, SVG Export Plug-In . SVG Version: 6.00 Build 0)  -->
<!DOCTYPE svg PUBLIC "-//W3C//DTD SVG 1.1//EN" "http://www.w3.org/Graphics/SVG/1.1/DTD/svg11.dtd">
<svg version="1.1" id="Layer_1" xmlns="http://www.w3.org/2000/svg" xmlns:xlink="http://www.w3.org/1999/xlink" x="0px" y="0px"
	 viewBox="0 0 595.3 841.9" enable-background="new 0 0 595.3 841.9" xml:space="preserve">
<g>
	<g>
		<path fill="#E68870" d="M248.5,497c0,0-16.3-106.3,6.6-136.2C287,319,319.5,344,319.5,344s22-3.6,30.2,23.3
			c14,46,6.2,130.4,6.2,130.4L248.5,497z"/>
		<g>
			<g>
				<path fill="#FCE2D8" d="M346.3,409.7c0,0,5.5-6.2,7.6,0.3c2.1,6.5-0.4,19.2-7.5,21.4c-7.1,2.2-5.7,0.3-5.7,0.3L346.3,409.7z"/>
			</g>
			<path fill="#F7B8A1" d="M343.8,413.9c-2,2.6-2.7,11.2,1.2,10.4c3.9-0.8,4.7-5.2,1.7-7.3C345.3,416,344.7,412.7,343.8,413.9z"/>
			<g>
				<g>
					<path fill="#F7B8A1" d="M350.7,424.3c0.8-2.7,1.4-5.6,1.3-8.4c-0.1-1.4-0.4-2.9-1.6-3.8c-1.6-1.2-3.9,0.1-5.3,0.9
						c-0.8,0.5-0.1,1.8,0.8,1.3c1-0.6,3.1-1.8,4.1-0.6c0.8,1,0.6,2.7,0.5,3.9c-0.1,2.1-0.6,4.2-1.2,6.2
						C349,424.9,350.5,425.3,350.7,424.3L350.7,424.3z"/>
				</g>
			</g>
			<g>
				<g>
					<path fill="#FCE2D8" d="M257,409.7c0,0-5.5-6.2-7.6,0.3c-2.1,6.5,0.4,19.2,7.5,21.4c7.1,2.2,5.7,0.3,5.7,0.3L257,409.7z"/>
				</g>
				<path fill="#F7B8A1" d="M259.8,413.9c2,2.6,2.7,11.2-1.2,10.4c-3.9-0.8-4.7-5.2-1.7-7.3C258.2,416,258.9,412.7,259.8,413.9z"/>
				<g>
					<g>
						<path fill="#F7B8A1" d="M254.2,423.9c-0.6-1.9-1-3.9-1.2-5.9c-0.1-1.3-0.2-2.8,0.4-4c0.8-1.6,3.2-0.2,4.2,0.4
							c0.8,0.5,1.6-0.8,0.8-1.3c-1.5-0.9-3.4-1.8-5.1-1c-1.3,0.6-1.6,2.3-1.8,3.6c-0.3,2.8,0.5,5.9,1.3,8.6
							C253.1,425.3,254.5,424.9,254.2,423.9L254.2,423.9z"/>
					</g>
				</g>
				<g>
					<g>
						<path fill="#FCE2D8" d="M284.1,487c0.1,5.9,4.9,10.7,10.9,10.7l11.6,0.1c6,0,10.8-4.9,10.6-10.9l-0.1-5c0-0.3,0.2-0.5,0.4-0.7
							c-1-0.4-1.8-0.9-2.4-1.6c-2.4-2.6-3.4-6.8-3.7-10.8c-7.4,2.7-13.7,2.6-20.1,0c-0.4,3.8-1.3,7.9-3.6,10.3c-1,1-2.3,1.7-3.9,2.2
							c0.1,0.1,0.2,0.3,0.2,0.5L284.1,487z"/>
					</g>
					<path fill="#F7B8A1" d="M311.3,468.9c-0.4-5.5,0.4-10.7,0.4-10.7l-20.5,1.2c0,0,0.5,4.5,0.1,9.4
						C297.6,471.5,303.9,471.6,311.3,468.9z"/>
					<path fill="#899F7B" d="M258.9,493c-7.5,12.1-5,30-5,30h95.8c0,0,1.4-20.8-5.3-31.6c-5.5-8.9-20.2-7.2-26.9-10
						c-0.2,0.1-0.4,0.3-0.4,0.6l0.1,4.9c0.2,6-4.7,10.9-10.6,10.9l-11.6-0.1c-5.9,0-10.7-4.8-10.9-10.7l-0.1-5.1
						c0-0.2-0.1-0.2-0.2-0.4C276.8,483.9,265,483.1,258.9,493z"/>
				</g>
				<g>
					<path fill="#FCE2D8" d="M346.9,404.7c-2.8,33.4-20.3,59-45.4,59c-25.1,0-42-26.7-45.4-59c-3.3-32.4,8.8-59,45.4-59
						C335.2,345.8,349.5,372.3,346.9,404.7z"/>
				</g>
				<ellipse fill="#3C4447" cx="324.4" cy="410.5" rx="5.1" ry="9.2"/>
				<ellipse fill="#3C4447" cx="278.7" cy="410.5" rx="5.1" ry="9.2"/>
				<g>
					<g>
						<path fill="#E68870" d="M291.8,439.1c1,4.6,4.5,8.2,9.2,8.4c4.7,0.2,8.4-3.9,9.5-8.1c0.5-1.9-2.4-2.7-2.9-0.8
							c-0.8,3.1-3.2,5.8-6.6,5.9c-3.4,0.2-5.7-3.3-6.3-6.2C294.3,436.5,291.4,437.3,291.8,439.1L291.8,439.1z"/>
					</g>
				</g>
				<g>
					<g>
						<path fill="#E68870" d="M270.9,392.4c4.7-2.8,11-1.6,15.6,0.5c1.7,0.8,3.3-1.8,1.5-2.6c-5.6-2.5-13-3.8-18.6-0.5
							C267.8,390.8,269.3,393.4,270.9,392.4L270.9,392.4z"/>
					</g>
				</g>
				<g>
					<g>
						<path fill="#E68870" d="M334.2,389.4c-5.8-3.1-13.1-1.6-18.6,1.3c-1.7,0.9-0.2,3.5,1.5,2.6c4.5-2.3,10.8-3.8,15.6-1.3
							C334.4,392.9,335.9,390.3,334.2,389.4L334.2,389.4z"/>
					</g>
				</g>
				<circle opacity="0.31" fill="#F7B8A1" cx="326.1" cy="434.3" r="10.4"/>
				<circle opacity="0.31" fill="#F7B8A1" cx="277.1" cy="434.3" r="10.4"/>
			</g>
		</g>
		<path fill="#E68870" d="M251.5,401.3c0,0,34.4-11.6,48.5-29.1c14.1-17.5,19.5-23.7,19.5-23.7s11.4,28,19.5,38
			c8.2,10,7.9,18.2,7.9,18.2l2.7-4.7l-4.2-35.8L332,349.5l-10.5-2.5l-20-4l-25,5.5l-23,25.3L251.5,401.3z"/>
	</g>
</g>
</svg>
