<?xml version="1.0" encoding="utf-8"?>
<!-- Generator: Adobe Illustrator 17.1.0, SVG Export Plug-In . SVG Version: 6.00 Build 0)  -->
<!DOCTYPE svg PUBLIC "-//W3C//DTD SVG 1.1//EN" "http://www.w3.org/Graphics/SVG/1.1/DTD/svg11.dtd">
<svg version="1.1" id="Layer_1" xmlns="http://www.w3.org/2000/svg" xmlns:xlink="http://www.w3.org/1999/xlink" x="0px" y="0px"
	 viewBox="0 0 595.3 841.9" enable-background="new 0 0 595.3 841.9" xml:space="preserve">
<g>
	<g>
		<g>
			<g>
				<path fill="#FCD7BE" d="M342.9,403.7c0,0,5.5-6.2,7.6,0.3c2.1,6.5-0.4,19.2-7.5,21.4c-7.1,2.2-5.7,0.3-5.7,0.3L342.9,403.7z"/>
			</g>
			<g>
				<path fill="#FCD7BE" d="M253.6,403.7c0,0-5.5-6.2-7.6,0.3c-2.1,6.5,0.4,19.2,7.5,21.4c7.1,2.2,5.7,0.3,5.7,0.3L253.6,403.7z"/>
			</g>
			<path fill="#F7B8A1" d="M256.3,407.9c2,2.6,2.7,11.2-1.2,10.4c-3.9-0.8-4.7-5.2-1.7-7.3C254.8,410,255.4,406.7,256.3,407.9z"/>
			<g>
				<g>
					<path fill="#F7B8A1" d="M250.8,417.9c-0.6-1.9-1-3.9-1.2-5.9c-0.1-1.3-0.2-2.8,0.4-4c0.8-1.6,3.2-0.2,4.2,0.4
						c0.8,0.5,1.6-0.8,0.8-1.3c-1.5-0.9-3.4-1.8-5.1-1c-1.3,0.6-1.6,2.3-1.8,3.6c-0.3,2.8,0.5,5.9,1.3,8.6
						C249.6,419.3,251.1,418.9,250.8,417.9L250.8,417.9z"/>
				</g>
			</g>
			<path fill="#F7B8A1" d="M340.3,407.9c-2,2.6-2.7,11.2,1.2,10.4c3.9-0.8,4.7-5.2,1.7-7.3C341.9,410,341.2,406.7,340.3,407.9z"/>
			<g>
				<g>
					<path fill="#F7B8A1" d="M347.3,418.3c0.8-2.7,1.4-5.6,1.3-8.4c-0.1-1.4-0.4-2.9-1.6-3.8c-1.6-1.2-3.9,0.1-5.3,0.9
						c-0.8,0.5-0.1,1.8,0.8,1.3c1-0.6,3.1-1.8,4.1-0.6c0.8,1,0.6,2.7,0.5,3.9c-0.1,2.1-0.6,4.2-1.2,6.2
						C345.6,418.9,347,419.3,347.3,418.3L347.3,418.3z"/>
				</g>
			</g>
			<g>
				<g>
					<path fill="#FCD7BE" d="M313,474.8c-0.5-0.3-1-0.7-1.4-1.1c-2.4-2.6-3.4-6.8-3.7-10.8c-7.4,2.7-13.7,2.6-20.1,0
						c-0.4,3.8-1.3,7.9-3.6,10.3c-0.4,0.4-0.8,0.8-1.3,1.1l14.7,18.2L313,474.8z"/>
				</g>
				<path fill="#E1454E" d="M255.4,487c-7.5,12.1-5,30-5,30h95.8c0,0,1.4-20.8-5.3-31.6c-5.8-9.3-21.8-7-27.9-10.5l-15.4,17.6
					l-14.7-18.1C276.6,478.4,262.4,475.8,255.4,487z"/>
				<path fill="#F7B8A1" d="M307.9,462.9c-0.4-5.5,0.4-10.7,0.4-10.7l-20.5,1.2c0,0,0.5,4.5,0.1,9.4
					C294.2,465.5,300.5,465.6,307.9,462.9z"/>
			</g>
			<g>
				<path fill="#FCD7BE" d="M343.4,398.7c-2.8,33.4-20.3,59-45.4,59c-25.1,0-42-26.7-45.4-59c-3.3-32.4,8.8-59,45.4-59
					C331.8,339.8,346.1,366.3,343.4,398.7z"/>
			</g>
			<ellipse fill="#3C4447" cx="321" cy="403.5" rx="7.9" ry="5.5"/>
			<ellipse fill="#3C4447" cx="276.2" cy="403.5" rx="7.9" ry="5.5"/>
			<g>
				<g>
					<path fill="#E68870" d="M288.3,433.1c1,4.6,4.5,8.2,9.2,8.4c4.7,0.2,8.4-3.9,9.5-8.1c0.5-1.9-2.4-2.7-2.9-0.8
						c-0.8,3.1-3.2,5.8-6.6,5.9c-3.4,0.2-5.7-3.3-6.3-6.2C290.8,430.5,287.9,431.3,288.3,433.1L288.3,433.1z"/>
				</g>
			</g>
			<g>
				<g>
					<path fill="#3C4447" d="M267.6,387.1c4.6-3.3,11-2.6,16-0.9c1.8,0.6,2.6-2.3,0.8-2.9c-5.7-2-13.1-2.6-18.3,1.2
						C264.5,385.7,266,388.3,267.6,387.1L267.6,387.1z"/>
				</g>
			</g>
			<g>
				<g>
					<path fill="#3C4447" d="M330.8,384.5c-5.2-3.7-12.6-3.1-18.3-1c-1.8,0.6-1,3.5,0.8,2.9c5-1.8,11.4-2.5,16,0.7
						C330.8,388.2,332.3,385.6,330.8,384.5L330.8,384.5z"/>
				</g>
			</g>
			<circle opacity="0.31" fill="#F7B8A1" cx="322.7" cy="428.3" r="10.4"/>
			<circle opacity="0.31" fill="#F7B8A1" cx="273.7" cy="428.3" r="10.4"/>
		</g>
		<path fill="#3C4447" d="M255.3,387.9c0,0.1,31-7.4,38-24.4c0,0-0.9,12.7-11.6,18.5c0,0,13.5-1.2,21.6-10.2
			c8-9,10.6-11.8,10.6-11.8s0.2,16-8,21.8c0,0,17.3-0.2,22-10.2c4.7-10,2.5-10,2.5-10s0.7,16.3,5.5,25.5c4.8,9.2,7.1,16.7,7.1,16.7
			l2-1.7c0,0,6.3-13.2,3.8-24.8c-2.5-11.6-2.5-10.4-2.5-10.4s6.4,9.1,5.4,13.1c0,0,2.4-29.3-13.4-39.8c-15.8-10.5-18.8-4.2-18.8-4.2
			s1.7-7-17.3-8.9c-19-1.9-40.7,5.1-49.8,19.6c0,0,5.3-4.2,10.3-5.6c0,0-13.7,6.2-17.3,22.2c-3.6,15.9,0,27.2,0,27.2l1.9-6.2
			c0,0,0.7,13.9,6.5,19.4L255.3,387.9z"/>
	</g>
</g>
</svg>
