<?xml version="1.0" encoding="utf-8"?>
<!-- Generator: Adobe Illustrator 17.1.0, SVG Export Plug-In . SVG Version: 6.00 Build 0)  -->
<!DOCTYPE svg PUBLIC "-//W3C//DTD SVG 1.1//EN" "http://www.w3.org/Graphics/SVG/1.1/DTD/svg11.dtd">
<svg version="1.1" id="Layer_1" xmlns="http://www.w3.org/2000/svg" xmlns:xlink="http://www.w3.org/1999/xlink" x="0px" y="0px"
 viewBox="137 320 320 200" xml:space="preserve">
<g>
	<g>
		<radialGradient id="SVGID_1_" cx="317.8196" cy="400.5642" r="44.423" gradientUnits="userSpaceOnUse">
			<stop  offset="0.7487" style="stop-color:#392011"/>
			<stop  offset="1" style="stop-color:#915123"/>
		</radialGradient>
		<path fill="url(#SVGID_1_)" d="M289.2,346.8c12.1-4.3,25.8-2.1,36.3,5.9c7.5,5.7,13.4,14,17,23.5c6.8,18,4.8,40-5,56.1
			c-9.8,16-27.1,25.5-44,24.1C309.2,420.8,308.5,379.9,289.2,346.8z"/>
		<radialGradient id="SVGID_2_" cx="277.8815" cy="400.5642" r="44.423" gradientUnits="userSpaceOnUse">
			<stop  offset="0.7487" style="stop-color:#392011"/>
			<stop  offset="1" style="stop-color:#915123"/>
		</radialGradient>
		<path fill="url(#SVGID_2_)" d="M306.5,346.8c-12.1-4.3-25.8-2.1-36.3,5.9c-7.5,5.7-13.4,14-17,23.5c-6.8,18-4.8,40,5,56.1
			c9.8,16,27.1,25.5,44,24.1C286.5,420.8,287.2,379.9,306.5,346.8z"/>
		<path fill="#F9DAC5" d="M352.5,476.9c-2.5-2-5.5-3.5-8.6-4.5l-28.9-9l0,0c-2.1-0.6-3.2-2.5-3.6-4.7c-1-6-0.9-21.9-0.9-24.5
			c0-0.2-0.2-0.4-0.4-0.4h-25.5c-0.2,0-0.4,0.2-0.4,0.4c0,2.6,0.1,18.2-0.9,24.5c-0.3,2.1-1.5,4-3.6,4.7l0,0l-29,9
			c-2.7,0.8-5.2,2-7.5,3.7c-11.8,8.7-12.1,22.8-12.6,25.5c0,0.2,0.1,0.4,0.4,0.4h66.3h66.3c0.2,0,0.4-0.2,0.4-0.4
			C363.6,499.1,363.5,485.6,352.5,476.9z"/>
		<path fill="#F9DAC5" d="M352.5,476.9c-2.5-2-5.5-3.5-8.6-4.5l-28.9-9l0,0c-2.1-0.6-3.2-2.5-3.6-4.7c-1-6-0.9-21.9-0.9-24.5
			c0-0.2-0.2-0.4-0.4-0.4h-25.5c-0.2,0-0.4,0.2-0.4,0.4c0,2.6,0.1,18.2-0.9,24.5c-0.3,2.1-1.5,4-3.6,4.7l0,0l-29,9
			c-2.7,0.8-5.2,2-7.5,3.7c-11.8,8.7-12.1,22.8-12.6,25.5c0,0.2,0.1,0.4,0.4,0.4h66.3h66.3c0.2,0,0.4-0.2,0.4-0.4
			C363.6,499.1,363.5,485.6,352.5,476.9z"/>
		<path fill="#F9DAC5" d="M352.5,476.9c-2.5-2-5.5-3.5-8.6-4.5l-3.2-1l-25.7-8c-2.1-0.6-3.2-2.5-3.6-4.7c-1-6-0.9-21.9-0.9-24.5
			c0-0.2-0.2-0.4-0.4-0.4h-25.5c-0.2,0-0.4,0.2-0.4,0.4c0,2.6,0.1,18.2-0.9,24.5c-0.3,2.1-1.5,4-3.6,4.7l-25.7,8l-3.3,1
			c-2.7,0.8-5.2,2-7.5,3.7c-11.8,8.7-12.1,22.8-12.6,25.5c0,0.2,0.1,0.4,0.4,0.4h66.3h66.3c0.2,0,0.4-0.2,0.4-0.4
			C363.6,499.1,363.5,485.6,352.5,476.9z"/>
		<g>
			<g>
				<path fill="#92B64D" d="M338.1,470.2c-1,4.2-4.7,13.2-19.1,17.3c-0.2,0-0.3,0.1-0.5,0.1c-13,3.9-26.7,3.8-39.7,0
					c-0.1,0-0.2-0.1-0.3-0.1c-14.4-4.2-18.2-13.2-19.1-17.4l-4.1,1.3V502h43.5h43.5v-30.5L338.1,470.2z"/>
			</g>
		</g>
		<g>
			<path fill="#F2BD9E" d="M310.6,447.6c-0.1-5.4-0.1-10.6-0.1-12c0-0.2-0.2-0.4-0.4-0.4h-25.5c-0.2,0-0.4,0.2-0.4,0.4
				c0,1.4,0,6.5-0.1,12C292.8,450.5,302.1,450.5,310.6,447.6z"/>
		</g>
		<g>
			<path fill="#F9DAC5" d="M266.7,401.3c2.3,5.5,1,14-2.9,15.6c-3.9,1.6-8.9-4.2-11.2-9.7c-2.3-5.5-1-11.2,2.9-12.9
				C259.4,392.7,264.4,395.8,266.7,401.3z"/>
			<path fill="#F9DAC5" d="M328.2,401.3c-2.3,5.5-1,14,2.9,15.6c3.9,1.6,8.9-4.2,11.2-9.7c2.3-5.5,1-11.2-2.9-12.9
				C335.5,392.7,330.5,395.8,328.2,401.3z"/>
		</g>
		<path fill="#F9DAC5" d="M297.4,348.4c-39.1-1.5-39.7,35.8-39.1,48.1c0.4,8.9,3.9,21.9,5.8,28.3c1.1,3.7,3,7.1,5.9,9.8
			c10.2,9.7,27.4,13.1,27.4,13.1s17.2-3.3,27.4-13.1c2.8-2.7,4.8-6.1,5.9-9.8c1.9-6.4,5.4-19.4,5.8-28.3
			C337.1,384.2,336.6,346.9,297.4,348.4z"/>
		
			<path fill="none" stroke="#D7935F" stroke-width="1.3835" stroke-linecap="round" stroke-linejoin="round" stroke-miterlimit="10" d="
			M289.7,426.4c1.3,1.9,4.3,3.2,7.8,3.2c3.5,0,6.4-1.3,7.8-3.2"/>
		<g>
			<ellipse fill="#332215" cx="277" cy="398.6" rx="5.1" ry="6"/>
			<ellipse fill="#332215" cx="316.3" cy="398.6" rx="5.1" ry="6"/>
		</g>
		<circle fill="#F7C9AA" cx="271.3" cy="413" r="5.7"/>
		<circle fill="#F7C9AA" cx="321.4" cy="413" r="5.7"/>
		<g>
			<polygon fill="#332215" points="317.5,397.8 323.6,396 321.3,399.2 			"/>
			<polygon fill="#332215" points="275.8,397.8 269.7,396 272,399.2 			"/>
		</g>
		<linearGradient id="SVGID_3_" gradientUnits="userSpaceOnUse" x1="297.434" y1="326.4685" x2="297.434" y2="403.8386">
			<stop  offset="0.7487" style="stop-color:#392011"/>
			<stop  offset="1" style="stop-color:#915123"/>
		</linearGradient>
		<path fill="url(#SVGID_3_)" d="M297.4,345.3c-13.9-4.7-53.4,14.9-42.6,47.3c0.4,0,4.7,19,11.7,25.4c-3.7-4.4-4.6-10.7-3.7-16.4
			c0.7-4.2,2.3-8.2,4-12.2c14.8-7.5,25.8-26.2,30.5-30.3c4.4,4,16.9,21,29.9,29.1c2,4.3,3.8,8.7,4.6,13.4c0.9,5.7,0.1,12-3.7,16.4
			c7-6.4,11.3-25.4,11.7-25.4C350.8,360.2,311.3,340.6,297.4,345.3z"/>
		<g>
			<linearGradient id="SVGID_4_" gradientUnits="userSpaceOnUse" x1="310.7431" y1="451.3039" x2="336.7566" y2="451.3039">
				<stop  offset="0" style="stop-color:#915123"/>
				<stop  offset="0.4422" style="stop-color:#392011"/>
			</linearGradient>
			<path fill="url(#SVGID_4_)" d="M326.2,457.5c2.8-3.6,7.2-5.8,9.3-9.7c1.5-2.7,1.7-6.2,0.5-9.1c-0.3-0.7-0.7-1.4-1.1-2.1
				c-2.5-0.8-5.2-1.1-8.1-0.7c-8.8,1.2-15.7,8.8-16,17.7c-0.1,4.1,1,7.8,3.1,11c2.7,4,8.8,2.6,9.9-2.1
				C324.2,460.6,325,458.9,326.2,457.5z"/>
		</g>
		<g>
			
				<linearGradient id="SVGID_5_" gradientUnits="userSpaceOnUse" x1="-238.5491" y1="74.3169" x2="-218.2155" y2="74.3169" gradientTransform="matrix(-1 0 0 -1 97.6974 538.3228)">
				<stop  offset="0.5578" style="stop-color:#392011"/>
				<stop  offset="1" style="stop-color:#915123"/>
			</linearGradient>
			<path fill="url(#SVGID_5_)" d="M324.2,459.2c-2.2,2.8-5.6,4.5-7.3,7.6c-1.2,2.1-1.3,4.8-0.4,7.1c0.2,0.6,0.5,1.1,0.9,1.6
				c2,0.6,4.1,0.8,6.3,0.6c6.9-0.9,12.3-6.8,12.5-13.8c0.1-3.2-0.8-6.1-2.4-8.6c-2.1-3.1-6.8-2-7.8,1.6
				C325.7,456.7,325.1,458,324.2,459.2z"/>
		</g>
		<linearGradient id="SVGID_6_" gradientUnits="userSpaceOnUse" x1="311.4275" y1="486.3076" x2="332.8052" y2="486.3076">
			<stop  offset="0" style="stop-color:#915123"/>
			<stop  offset="0.4422" style="stop-color:#392011"/>
		</linearGradient>
		<path fill="url(#SVGID_6_)" d="M318.3,474.9c-2.2,1.5-3.6,4.1-3.6,6.7c-0.1,2.3,0.8,4.5,1,6.8c0.3,3.7-1.3,7.5-4.2,9.8
			c4.8,1.9,10.5,1.2,14.7-1.8c4.2-2.9,6.8-8,6.7-13.2c0-2.2-0.6-4.5-1.8-6.3C328.3,473.1,322.2,472.2,318.3,474.9z"/>
	</g>
</g>
</svg>
