<?xml version="1.0" encoding="utf-8"?>
<!-- Generator: Adobe Illustrator 17.1.0, SVG Export Plug-In . SVG Version: 6.00 Build 0)  -->
<!DOCTYPE svg PUBLIC "-//W3C//DTD SVG 1.1//EN" "http://www.w3.org/Graphics/SVG/1.1/DTD/svg11.dtd">
<svg version="1.1" id="Layer_1" xmlns="http://www.w3.org/2000/svg" xmlns:xlink="http://www.w3.org/1999/xlink" x="0px" y="0px"
 viewBox="137 320 320 200" xml:space="preserve">
<g>
	<g>
		<g>
			<path fill="#C68458" d="M363.7,484.5c-3-2.1-6.4-3.6-10-4.6l-3.8-1c0,0,0.1,0,0.1,0l-30-9.7c-2.4-0.6-3.8-2.6-4.2-4.8
				c-1.2-6.2-1.1-21.3-1-24c0-0.2-0.2-0.4-0.4-0.4H313h-29.7h-1.4c-0.2,0-0.4,0.2-0.4,0.4c0,2.7,0.2,17.4-1,24
				c-0.4,2.2-1.8,4.2-4.2,4.8l-30,9.7c0,0,0.1,0,0.1,0l-3.9,1c-3.1,0.9-6.1,2.1-8.7,3.8c-13.7,9-14.1,23.6-14.7,26.4
				c0,0.2,0.2,0.4,0.4,0.4h78.7h78.7c0.3,0,0.5-0.2,0.4-0.4C376.7,507.4,376.5,493.5,363.7,484.5z"/>
			<g>
				<path fill="#E1DA4E" d="M363.7,484.5c-3-2.1-6.4-3.6-10-4.6l-3.8-1c0,0,0.1,0,0.1,0l-25.8-8.4c-8.1,3.1-16.9,4.8-26.1,4.8
					c-9.3,0-18.1-1.7-26.1-4.8l-25.8,8.4c0,0,0.1,0,0.1,0l-3.9,1c-3.1,0.9-6.1,2.1-8.7,3.8c-13.7,9-14.1,23.6-14.7,26.4
					c0,0.2,0.2,0.4,0.4,0.4h78.7h78.7c0.3,0,0.5-0.2,0.4-0.4C376.7,507.4,376.5,493.5,363.7,484.5z"/>
			</g>
			<g>
				<path fill="#A66B43" d="M315.2,458.6c-0.1-7-0.4-13.6-0.4-15.4c0-0.3-0.2-0.5-0.4-0.5h-32.6c-0.2,0-0.4,0.2-0.4,0.5
					c0,1.8-0.3,8.4-0.4,15.4c2.3,2.4,11,5.9,16.8,5.9C303.8,464.6,312.7,460.5,315.2,458.6z"/>
			</g>
			<g>
				<path fill="#C68458" d="M267.4,408.1c2.3,6.2,1,15.8-2.9,17.7c-3.9,1.9-8.9-4.8-11.2-11c-2.3-6.2-1-12.7,2.9-14.6
					C260,398.4,265.1,401.9,267.4,408.1z"/>
				<path fill="#C68458" d="M328.9,408.1c-2.3,6.2-1,15.8,2.9,17.7c3.9,1.9,8.9-4.8,11.2-11s1-12.7-2.9-14.6
					C336.2,398.4,331.2,401.9,328.9,408.1z"/>
			</g>
			<path fill="#C68458" d="M297.8,353.3c-38.8-1.3-39.3,35.8-38.8,48.1c0.4,8.9,2.5,21.9,4.4,28.3c1.1,3.7,3,9.9,5.9,12.6
				c7.6,7.2,17,13.6,22.8,15.8c1,0.4,3.3,0.6,5.7,0.6c2.4,0,4.7-0.2,5.7-0.6c5.8-2.2,15.2-8.6,22.8-15.8c2.8-2.7,4.8-8.9,5.9-12.6
				c1.9-6.4,4-19.4,4.4-28.3C337.1,389.1,336.5,352,297.8,353.3z"/>
			<g>
				<path fill="#392011" d="M305.5,449.2c-3.8-0.7-6.8-4.7-7.4-7c-0.5,2.3-3.6,6.3-7.4,7c-9.3,1.7-18.6-6.3-25.4-14.6
					c1.1,3,2.5,6,4.3,7.7c7.6,7.2,17,13.6,22.8,15.8c1,0.4,3.3,0.6,5.7,0.6c2.4,0,4.7-0.2,5.7-0.6c5.8-2.2,15.2-8.6,22.8-15.8
					c1.8-1.7,3.2-4.7,4.3-7.7C324.1,442.8,314.8,450.8,305.5,449.2z"/>
			</g>
			<g>
				<ellipse fill="#332215" cx="277.7" cy="404.5" rx="4.8" ry="5.5"/>
				<ellipse fill="#332215" cx="317" cy="404.5" rx="4.8" ry="5.5"/>
			</g>
			<g>
				<g>
					<path fill="#FFFFFF" d="M285.7,430.9c2.1,5.3,6.9,9,12.4,9c5.5,0,10.2-3.7,12.4-9H285.7z"/>
				</g>
			</g>
		</g>
		<g>
			<g>
				<g>
					<path fill="#392011" d="M263.6,389.8c1.6-7.2,4.3-14.3,8-20.7c-1.2-1.7-3.3-2.1-5.3-1.6c-5.9,9-7.3,20.3-7.4,28.2
						c0.3,4.6,1,9.1,2.5,13.2C262.5,402.6,262.1,396.1,263.6,389.8z"/>
				</g>
			</g>
			<g>
				<g>
					<path fill="#392011" d="M332.7,389.8c-1.6-7.2-4.3-14.3-8-20.7c1.2-1.7,3.3-2.1,5.3-1.6c5.9,9,7.3,20.3,7.4,28.2
						c-0.3,4.6-1,9.1-2.5,13.2C333.7,402.6,334.1,396.1,332.7,389.8z"/>
				</g>
			</g>
		</g>
		<linearGradient id="SVGID_1_" gradientUnits="userSpaceOnUse" x1="298.1161" y1="373.3696" x2="298.1161" y2="331.5839">
			<stop  offset="0" style="stop-color:#392011"/>
			<stop  offset="0.7085" style="stop-color:#915123"/>
			<stop  offset="1" style="stop-color:#A7732F"/>
		</linearGradient>
		<path fill="url(#SVGID_1_)" d="M334.5,369.2c-0.1-0.7-0.3-1.3-0.7-1.9c-1.5-2.4-3.3-4.6-5.6-6.6c0-2.2-0.9-4.6-2-6.6
			c-5.3-9.4-13.5-17.1-23.2-21.8c-0.1,5.3-4.2,9.7-8.8,12.3c-4.6,2.7-9.7,4.2-14.2,7.1c-1.1,0.7-3.2,2.3-4.8,4.1
			c-5.6,2.9-10,6.9-12.9,11.6c-0.4,0.6-0.6,1.2-0.7,1.9c-4.4,8.4-3.7,18-3.8,25.1c0.3,4.6,2.1,17.5,3.5,21.5
			c1.2-6.3,0.8-21.1,2.2-27.4c1.1-4.6,2.6-9.2,4.5-13.6c9.6-10.1,49.7-9.6,60.2,0c1.9,4.4,3.4,8.9,4.5,13.6c1.4,6.3,1,21.1,2.2,27.4
			c1.4-4.1,3.2-16.9,3.5-21.5C338.2,387.3,338.9,377.6,334.5,369.2z"/>
	</g>
</g>
<g>
	<g>
		<path fill="#8FCEC8" d="M293.6,397.5c-7.1-8.6-33.8-2.5-33.8-2.5c0.5,2,0.9,3.9,1.3,5.8c2,0.2,2.1,4.7,2.3,6.3
			c1,7.9,6.2,13.7,17.3,13.4c11.1-0.6,13.7-8.6,14.2-13.7C295.4,401.3,293.6,397.5,293.6,397.5z M292.4,407.2
			c-0.6,7.1-4.9,11.2-11.9,11.5c-0.7,0-1.4,0-2.1,0c-11,0-12.9-9.7-13.1-15.8c-0.1-3.5,2.4-6.5,5.9-6.8c2-0.2,4.3-0.2,6.9-0.2
			c8.2,0,11.8,2,12.8,3.5C291.4,400.4,292.7,403.4,292.4,407.2z"/>
		<path fill="#8FCEC8" d="M301.5,406.8c0.5,5.1,3.1,13.1,14.2,13.7c11.1,0.3,16.4-5.5,17.3-13.4c0.2-1.6,0.3-6.1,2.3-6.3
			c0.4-1.9,0.8-3.8,1.3-5.8c0,0-26.7-6.1-33.8,2.5C302.7,397.5,301,401.3,301.5,406.8z M305.5,399.4c1-1.6,4.5-3.5,12.8-3.5
			c2.6,0,4.9,0,6.9,0.2c3.5,0.3,6,3.3,5.9,6.8c-0.2,6.1-2.1,15.8-13.1,15.8c-0.7,0-1.3,0-2.1,0c-7-0.3-11.3-4.5-11.9-11.5
			C303.7,403.4,304.9,400.4,305.5,399.4z"/>
	</g>
	<path fill="#8FCEC8" d="M303,404.3c0,0-1.8-1.4-5-1.4c-3,0-4.6,1.4-4.6,1.4c-0.5-1.3-1-2.7-1.5-4c4.2,0,8.3,0,12.5,0
		C304,401.6,303.5,403,303,404.3z"/>
</g>
</svg>
