<?xml version="1.0" encoding="utf-8"?>
<!-- Generator: Adobe Illustrator 17.1.0, SVG Export Plug-In . SVG Version: 6.00 Build 0)  -->
<!DOCTYPE svg PUBLIC "-//W3C//DTD SVG 1.1//EN" "http://www.w3.org/Graphics/SVG/1.1/DTD/svg11.dtd">
<svg version="1.1" id="Layer_1" xmlns="http://www.w3.org/2000/svg" xmlns:xlink="http://www.w3.org/1999/xlink" x="0px" y="0px"
 viewBox="137 320 320 200" xml:space="preserve">
<g>
	<radialGradient id="SVGID_1_" cx="298.1162" cy="397.9193" r="72.9893" gradientUnits="userSpaceOnUse">
		<stop  offset="0.4632" style="stop-color:#392011"/>
		<stop  offset="0.6143" style="stop-color:#3B2112"/>
		<stop  offset="0.7081" style="stop-color:#412515"/>
		<stop  offset="0.7864" style="stop-color:#4B2B18"/>
		<stop  offset="0.8561" style="stop-color:#5A341D"/>
		<stop  offset="0.9202" style="stop-color:#6E3E20"/>
		<stop  offset="0.9792" style="stop-color:#874B22"/>
		<stop  offset="1" style="stop-color:#915123"/>
	</radialGradient>
	<path fill="url(#SVGID_1_)" d="M371.4,419.7c-0.6-2.1-2.3-3.6-4.1-4.6c-0.2-0.1-0.4-0.2-0.5-0.2c0.1-0.1,0.1-0.3,0.2-0.4
		c0.6-1.3,0.9-2.7,0.9-4.1v-0.8c0-2-0.5-3.9-1.5-5.6c-0.6-0.7-1.1-1.4-1.7-2.1c0.3-0.3,0.6-0.5,0.8-0.8c1-1,1.7-2.2,2.1-3.6
		c0.6-1.3,0.9-2.6,0.8-4v-0.8c-0.1-1.9-0.6-3.7-1.6-5.4c-0.6-0.7-1.2-1.5-1.8-2.2c-0.4-0.4-0.9-0.7-1.3-1c0.3-0.2,0.6-0.4,0.9-0.6
		c1.7-1.5,2.6-3.8,2.8-6c0.1-1.2-0.1-2.3-0.6-3.4c-0.3-1.2-0.9-2.2-1.8-3c-0.8-0.9-1.7-1.5-2.8-1.9c-1-0.6-2.1-0.8-3.2-0.9h-0.8
		c-0.1,0-0.2,0-0.2,0c1.1-2.2,1.7-4.6,1.4-6.9c-0.7-6.4-5.9-10-11.8-10.5c0-0.3,0.1-0.7,0.1-1c0.3-6.7-5.3-13.6-12.3-13.6
		c-1.9,0-3.7,0.4-5.3,1c-1.5-4.9-6.3-7.7-11.4-7.7c-1.6,0-3.1,0.5-4.4,1.3c0,0,0-0.1-0.1-0.1c-0.5-0.6-0.9-1.3-1.4-1.9
		c-1.5-1.8-3.9-2.7-6.2-3c-1.3-0.1-2.5,0.1-3.6,0.6c-1.2,0.3-2.2,0.9-3.1,1.8c-0.6,0.5-1.1,1.1-1.5,1.8c-0.4-0.7-0.9-1.3-1.5-1.8
		c-0.9-0.9-1.9-1.5-3.1-1.8c-1.1-0.5-2.3-0.7-3.6-0.6c-2.3,0.2-4.7,1.1-6.2,3c-0.5,0.6-0.9,1.3-1.4,1.9c0,0,0,0.1-0.1,0.1
		c-1.3-0.8-2.8-1.3-4.4-1.3c-5.2,0-9.9,2.8-11.4,7.7c-1.7-0.7-3.5-1-5.3-1c-7,0-12.6,6.9-12.3,13.6c0,0.4,0.1,0.7,0.1,1
		c-5.9,0.5-11.1,4.1-11.8,10.5c-0.2,2.2,0.3,4.7,1.4,6.9c-0.1,0-0.2,0-0.2,0h-0.8c-1.2,0-2.2,0.3-3.2,0.9c-1.1,0.4-2,1-2.8,1.9
		c-0.9,0.9-1.5,1.9-1.8,3c-0.5,1.1-0.7,2.2-0.6,3.4c0.2,2.2,1,4.5,2.8,6c0.3,0.2,0.6,0.4,0.9,0.6c-0.5,0.3-0.9,0.6-1.3,1
		c-0.6,0.7-1.2,1.5-1.8,2.2c-1,1.7-1.5,3.4-1.6,5.4v0.8c-0.1,1.4,0.2,2.8,0.8,4c0.4,1.4,1.1,2.5,2.1,3.6c0.3,0.3,0.5,0.6,0.8,0.8
		c-0.6,0.7-1.1,1.4-1.7,2.1c-1,1.7-1.5,3.6-1.5,5.6v0.8c-0.1,1.5,0.2,2.8,0.9,4.1c0,0.1,0.1,0.3,0.2,0.4c-0.2,0.1-0.4,0.1-0.5,0.2
		c-1.8,1-3.5,2.6-4.1,4.6c-0.6,2-0.6,4.1,0.3,6c0.3,0.5,0.5,1.1,0.8,1.6c0.9,1.9,2.6,3.4,4.6,4.1c0.8,0.3,1.7,0.4,2.5,0.4
		c0.1,0.6,0.3,1.1,0.7,1.7c0.4,0.9,0.9,1.7,1.7,2.3c0.7,0.7,1.5,1.1,2.5,1.4c0.9,0.4,1.8,0.5,2.8,0.5c0.2,0,0.4-0.1,0.6-0.1
		c-0.8,1.4-1.3,3-1.3,4.7v0.8c0,1.3,0.2,2.4,0.8,3.5c0.4,1.1,1,2.1,1.9,2.9c0.8,0.9,1.8,1.5,2.9,1.8c1.1,0.5,2.2,0.8,3.4,0.7
		c0.8-0.1,1.6-0.2,2.4-0.3c0.2-0.1,0.5-0.2,0.7-0.2c0,0.8,0.2,1.6,0.5,2.3c0.3,1.3,0.8,2.5,1.7,3.6c0.8,1.1,1.9,2,3.1,2.6
		c1.2,0.8,2.5,1.3,3.9,1.4c0.9,0,1.8,0,2.7-0.1c0.8-0.1,1.5-0.3,2.2-0.6c0.3,0.6,0.6,1.2,1.1,1.7c0.7,1,1.7,1.7,2.7,2.2
		c1,0.7,2.2,1.1,3.4,1.1c0.8,0,1.6-0.1,2.5-0.1c1.1-0.2,2.2-0.6,3.1-1.2c2.1,3.4,5.7,5.9,10.8,5.9c3.4,0,6.1-1.1,8.1-2.9
		c2,1.8,4.7,2.9,8.1,2.9c5.1,0,8.7-2.5,10.8-5.9c1,0.6,2,1,3.1,1.2c0.8,0,1.6,0.1,2.5,0.1c1.3-0.1,2.4-0.5,3.4-1.1
		c1.1-0.5,2-1.2,2.7-2.2c0.5-0.5,0.8-1.1,1.1-1.7c0.7,0.3,1.4,0.5,2.2,0.6c0.9,0,1.8,0,2.7,0.1c1.4-0.1,2.8-0.6,3.9-1.4
		c1.3-0.6,2.3-1.4,3.1-2.6c0.9-1.1,1.5-2.2,1.7-3.6c0.3-0.8,0.4-1.5,0.5-2.3c0.2,0.1,0.5,0.2,0.7,0.2c0.8,0.1,1.6,0.2,2.4,0.3
		c1.2,0,2.3-0.2,3.4-0.7c1.1-0.3,2.1-1,2.9-1.8c0.9-0.8,1.6-1.8,1.9-2.9c0.6-1.1,0.9-2.3,0.8-3.5v-0.8c0-1.7-0.5-3.3-1.3-4.7
		c0.2,0,0.4,0.1,0.6,0.1c1,0.1,1.9-0.1,2.8-0.5c0.9-0.2,1.7-0.7,2.5-1.4c0.8-0.6,1.4-1.4,1.7-2.3c0.3-0.5,0.5-1.1,0.7-1.7
		c0.9,0,1.7-0.1,2.5-0.4c2-0.7,3.7-2.3,4.6-4.1c0.3-0.5,0.5-1.1,0.8-1.6C372,423.8,372,421.7,371.4,419.7z"/>
	<g>
		<path fill="#FCF190" d="M251.5,486.5c-2.7,0.8-5.2,2-7.5,3.7c-11.8,8.7-12.1,22.8-12.6,25.5c0,0.2,0.1,0.4,0.4,0.4h24.6l4-32.3
			L251.5,486.5z"/>
		<path fill="#C68458" d="M298.1,508.5l32.1-9.1V482l-14.5-4.5l0,0c-2.1-0.6-3.2-2.5-3.6-4.7c-1-6-0.9-21.9-0.9-24.5
			c0-0.2-0.2-0.4-0.4-0.4h-25.5c-0.2,0-0.4,0.2-0.4,0.4c0,2.6,0.1,18.2-0.9,24.5c-0.3,2.1-1.5,4-3.6,4.7L266,482v17.4L298.1,508.5z"
			/>
		<path fill="#FCF190" d="M353.2,491c-2.5-2-5.5-3.5-8.6-4.5l-8.9-2.8l4,32.3h24.6c0.2,0,0.4-0.2,0.4-0.4
			C364.3,513.1,364.1,499.7,353.2,491z"/>
		<polygon fill="#FCF190" points="330.2,482 330.2,499.4 298.1,508.5 266,499.4 266,482 260.5,483.8 256.4,516.1 297.8,516.1 
			298.1,516.1 298.4,516.1 339.8,516.1 335.8,483.8 		"/>
	</g>
	<g>
		<path fill="#A66B43" d="M311.3,461.7c-0.1-5.4-0.1-10.6-0.1-12c0-0.2-0.2-0.4-0.4-0.4h-25.5c-0.2,0-0.4,0.2-0.4,0.4
			c0,1.4,0,6.5-0.1,12C293.4,464.6,302.8,464.6,311.3,461.7z"/>
	</g>
	<g>
		<path fill="#C68458" d="M267.4,415.3c2.3,5.5,1,14-2.9,15.6c-3.9,1.6-8.9-4.2-11.2-9.7c-2.3-5.5-1-11.2,2.9-12.9
			C260,406.8,265.1,409.9,267.4,415.3z"/>
		<path fill="#C68458" d="M328.9,415.3c-2.3,5.5-1,14,2.9,15.6c3.9,1.6,8.9-4.2,11.2-9.7c2.3-5.5,1-11.2-2.9-12.9
			C336.2,406.8,331.2,409.9,328.9,415.3z"/>
	</g>
	<path fill="#C68458" d="M298.1,361.5c-39.1-1.5-39.7,35.8-39.1,48.1c0.4,8.9,3.9,21.9,5.8,28.3c1.1,3.7,3,7.1,5.9,9.8
		c10.2,9.7,27.4,13.1,27.4,13.1s17.2-3.3,27.4-13.1c2.8-2.7,4.8-6.1,5.9-9.8c1.9-6.4,5.4-19.4,5.8-28.3
		C337.8,397.3,337.2,359.9,298.1,361.5z"/>
	<g>
		<ellipse fill="#332215" cx="277.7" cy="412.7" rx="5.1" ry="6.5"/>
		<ellipse fill="#332215" cx="317" cy="412.7" rx="5.1" ry="6.5"/>
	</g>
	<g>
		<polygon fill="#332215" points="318.2,411 324.3,409.2 322,412.4 		"/>
		<polygon fill="#332215" points="276.5,411 270.4,409.2 272.7,412.4 		"/>
	</g>
	<g>
		<g>
			<path fill="#FFFFFF" stroke="#BC2625" stroke-width="1.7133" stroke-miterlimit="10" d="M285.7,437.8c2.1,4.7,6.9,8,12.4,8
				c5.5,0,10.2-3.3,12.4-8H285.7z"/>
		</g>
	</g>
	<circle fill="#D6725F" cx="272" cy="427.1" r="5.7"/>
	<circle fill="#D6725F" cx="322.1" cy="427.1" r="5.7"/>
	<g>
		<linearGradient id="SVGID_2_" gradientUnits="userSpaceOnUse" x1="256.7968" y1="397.7815" x2="256.7968" y2="416.8369">
			<stop  offset="0.3263" style="stop-color:#392011"/>
			<stop  offset="0.5159" style="stop-color:#3B2112"/>
			<stop  offset="0.6337" style="stop-color:#412515"/>
			<stop  offset="0.732" style="stop-color:#4B2B18"/>
			<stop  offset="0.8195" style="stop-color:#5A341D"/>
			<stop  offset="0.8998" style="stop-color:#6E3E20"/>
			<stop  offset="0.9739" style="stop-color:#874B22"/>
			<stop  offset="1" style="stop-color:#915123"/>
		</linearGradient>
		<path fill="url(#SVGID_2_)" d="M260.9,423.6c0.2-8.6,0.3-17.2,0.5-25.8c0.1-4.1,1.1-12.2-5.8-10.1c-5.6,1.7-3,11-2.2,15.2
			c0.6,3.6,1.6,7.2,2.9,10.7C257.2,416.1,261,421.1,260.9,423.6z"/>
		
			<linearGradient id="SVGID_3_" gradientUnits="userSpaceOnUse" x1="-4.6445" y1="397.7815" x2="-4.6445" y2="416.8369" gradientTransform="matrix(-1 0 0 1 334.07 0)">
			<stop  offset="0.3263" style="stop-color:#392011"/>
			<stop  offset="0.5159" style="stop-color:#3B2112"/>
			<stop  offset="0.6337" style="stop-color:#412515"/>
			<stop  offset="0.732" style="stop-color:#4B2B18"/>
			<stop  offset="0.8195" style="stop-color:#5A341D"/>
			<stop  offset="0.8998" style="stop-color:#6E3E20"/>
			<stop  offset="0.9739" style="stop-color:#874B22"/>
			<stop  offset="1" style="stop-color:#915123"/>
		</linearGradient>
		<path fill="url(#SVGID_3_)" d="M334.6,423.6c-0.2-8.6-0.3-17.2-0.5-25.8c-0.1-4.1-1.1-12.2,5.8-10.1c5.6,1.7,3,11,2.2,15.2
			c-0.6,3.6-1.6,7.2-2.9,10.7C338.3,416.1,334.5,421.1,334.6,423.6z"/>
	</g>
	<linearGradient id="SVGID_4_" gradientUnits="userSpaceOnUse" x1="297.7556" y1="353.0642" x2="297.7556" y2="395.2581">
		<stop  offset="0.3263" style="stop-color:#392011"/>
		<stop  offset="0.5159" style="stop-color:#3B2112"/>
		<stop  offset="0.6337" style="stop-color:#412515"/>
		<stop  offset="0.732" style="stop-color:#4B2B18"/>
		<stop  offset="0.8195" style="stop-color:#5A341D"/>
		<stop  offset="0.8998" style="stop-color:#6E3E20"/>
		<stop  offset="0.9739" style="stop-color:#874B22"/>
		<stop  offset="1" style="stop-color:#915123"/>
	</linearGradient>
	<path fill="url(#SVGID_4_)" d="M341.4,383.1c0-16.4-18.5-29.8-43.7-29.8c-25.2,0-43.7,13.3-43.7,29.8c0,4.3-0.6,8.3,1.9,12h83.7
		C342.1,391.4,341.4,387.3,341.4,383.1z"/>
</g>
</svg>
