<?xml version="1.0" encoding="utf-8"?>
<!-- Generator: Adobe Illustrator 17.1.0, SVG Export Plug-In . SVG Version: 6.00 Build 0)  -->
<!DOCTYPE svg PUBLIC "-//W3C//DTD SVG 1.1//EN" "http://www.w3.org/Graphics/SVG/1.1/DTD/svg11.dtd">
<svg version="1.1" id="Layer_1" xmlns="http://www.w3.org/2000/svg" xmlns:xlink="http://www.w3.org/1999/xlink" x="0px" y="0px"
 viewBox="137 320 320 200" xml:space="preserve">
<g>
	<g>
		<path fill="#F9DAC5" d="M363.6,483.9c-3-2.1-6.4-3.6-10-4.6l-3.8-1c0,0,0.1,0,0.1,0l-30-9.7c-2.4-0.6-3.8-2.6-4.2-4.8
			c-1.2-6.2-1.1-21.3-1-24c0-0.2-0.2-0.4-0.4-0.4h-1.4h-29.7h-1.4c-0.2,0-0.4,0.2-0.4,0.4c0,2.7,0.1,17.4-1,24
			c-0.4,2.2-1.8,4.2-4.2,4.8l-30,9.7c0,0,0.1,0,0.1,0l-3.9,1c-3.1,0.9-6.1,2.1-8.7,3.8c-13.7,9-14.1,23.6-14.7,26.4
			c0,0.2,0.2,0.4,0.4,0.4H298h78.7c0.3,0,0.5-0.2,0.4-0.4C376.5,506.8,376.3,492.9,363.6,483.9z"/>
		<path fill="#87B3B5" d="M363.6,483.9c-3-2.1-6.4-3.6-10-4.6l-3.8-1c0,0,0.1,0,0.1,0l-27-8.8L298,501.7l-24.9-32.2l-27,8.8
			c0,0,0.1,0,0.1,0l-3.9,1c-3.1,0.9-6.1,2.1-8.7,3.8c-13.7,9-14.1,23.6-14.7,26.4c0,0.2,0.2,0.4,0.4,0.4H298h78.7
			c0.3,0,0.5-0.2,0.4-0.4C376.5,506.8,376.3,492.9,363.6,483.9z"/>
		<g>
			<path fill="#F2BD9E" d="M315.1,458.1c-0.1-7-0.4-13.6-0.4-15.4c0-0.3-0.2-0.5-0.4-0.5h-32.6c-0.2,0-0.4,0.2-0.4,0.5
				c0,1.8-0.3,8.4-0.4,15.4c2.3,2.4,11,5.9,16.8,5.9C303.7,464.1,312.6,460,315.1,458.1z"/>
		</g>
		<g>
			<path fill="#F9DAC5" d="M267.3,407.5c2.3,6.2,1,15.8-2.9,17.7c-3.9,1.9-8.9-4.8-11.2-11c-2.3-6.2-1-12.7,2.9-14.6
				C259.9,397.9,265,401.4,267.3,407.5z"/>
			<path fill="#F9DAC5" d="M328.8,407.5c-2.3,6.2-1,15.8,2.9,17.7c3.9,1.9,8.9-4.8,11.2-11c2.3-6.2,1-12.7-2.9-14.6
				C336.1,397.9,331.1,401.4,328.8,407.5z"/>
		</g>
		<path fill="#F9DAC5" d="M297.7,352.7c-38.8-1.3-39.3,35.8-38.8,48.1c0.4,8.9,2.5,21.9,4.4,28.3c1.1,3.7,3,9.9,5.9,12.6
			c7.6,7.2,17,13.6,22.8,15.8c1,0.4,3.3,0.6,5.7,0.6c2.4,0,4.7-0.2,5.7-0.6c5.8-2.2,15.2-8.6,22.8-15.8c2.8-2.7,4.8-8.9,5.9-12.6
			c1.9-6.4,4-19.4,4.4-28.3C337,388.6,336.4,351.4,297.7,352.7z"/>
		<g>
			<ellipse fill="#332215" cx="277.6" cy="403.9" rx="4.8" ry="6"/>
			<ellipse fill="#332215" cx="316.9" cy="403.9" rx="4.8" ry="6"/>
		</g>
		
			<path fill="none" stroke="#D7935F" stroke-width="1.3835" stroke-linecap="round" stroke-linejoin="round" stroke-miterlimit="10" d="
			M289.9,434.2c1.3,1.9,4.3,3.2,7.8,3.2c3.5,0,6.4-1.3,7.8-3.2"/>
		<linearGradient id="SVGID_1_" gradientUnits="userSpaceOnUse" x1="297.6594" y1="440.7526" x2="297.6594" y2="463.6592">
			<stop  offset="0" style="stop-color:#6A260C"/>
			<stop  offset="1" style="stop-color:#915123"/>
		</linearGradient>
		<path fill="url(#SVGID_1_)" d="M330.5,441.2c0.9-3.3,1.4-6.1,1.8-8.3c2.9-13.3,3.7-28.6,3.7-28.6c-3.2,12.3-7.7,24.7-10.6,31.6
			c-0.8,1.8-3.3,2-4.2,0.2c-1.5-3-4.2-6.3-7.8-8c-8.7-4.3-15.5,1-15.5,1c3.6,0.1,8.3,0.9,10.3,4.4c7,12.3-9.9,14.3-10.6,13.6
			c-0.7,0.7-17.5-1.3-10.6-13.6c2-3.5,6.7-4.3,10.3-4.4c0,0-6.8-5.3-15.5-1c-3.6,1.8-6.2,5-7.8,8c-0.9,1.8-3.5,1.7-4.2-0.2
			c-2.9-7-7.4-19.4-10.6-31.6c0,0,0.7,15.3,3.7,28.6c0.5,2.3,1.1,5.6,2.1,9.3c-0.1,0.1-0.2,0.2-0.3,0.4c-0.2,0.3-0.4,0.6-0.5,0.9
			c-0.3,0.7-0.4,1.3-0.3,2.1v0.7c0,0.9,0.8,2.1,1.5,2.6c0.3,0.2,0.7,0.4,1,0.6c-0.6,0.5-1,1.1-1.3,1.7c-0.5,0.7-0.8,1.5-0.8,2.4
			c-0.1,0.9-0.1,1.8,0.3,2.6c0.2,0.9,0.5,1.6,1.1,2.3c1.1,1.2,2.6,2.3,4.3,2.4c0.5,0,1.1,0,1.6,0c-0.2,0.6-0.2,1.3-0.2,2
			c0.1,1.6,1,3.5,2.4,4.5c1.3,1,3,1.7,4.7,1.4c0.5-0.1,1.1-0.2,1.6-0.4c0.2-0.1,0.4-0.2,0.6-0.3c0,0.2,0,0.4,0,0.6
			c0,1.6,0.7,3.5,1.8,4.5c1.2,1.2,2.9,2,4.7,2c1.7-0.1,3.3-0.6,4.5-1.8c0.2-0.2,0.5-0.5,0.7-0.7c0.3-0.3,0.6-0.7,0.8-1.1
			c0.6,2.4,2.5,4.4,5.8,4.4c2.5,0,4.4-1.2,5.4-2.9c0.1,0.1,0.2,0.2,0.3,0.3c1.1,1.1,2.9,1.9,4.5,1.9c1.7-0.1,3.5-0.6,4.7-1.9
			c1-1.2,1.7-2.6,1.8-4.1c0.7,0.2,1.4,0.4,2.3,0.4c4.2,0,6.2-3.2,6.1-6.4c1.6,0,3.3-0.5,4.5-1.6c1.2-1.2,2.2-2.8,2.2-4.6v-0.7
			c0-1.4-0.4-2.8-1.1-4C333.5,449.8,333.8,443.8,330.5,441.2z"/>
		<linearGradient id="SVGID_2_" gradientUnits="userSpaceOnUse" x1="297.6593" y1="373.7238" x2="297.6593" y2="331.9381">
			<stop  offset="0" style="stop-color:#392011"/>
			<stop  offset="0.7085" style="stop-color:#915123"/>
			<stop  offset="1" style="stop-color:#A7732F"/>
		</linearGradient>
		<path fill="url(#SVGID_2_)" d="M334.1,369.6c-0.1-0.7-0.3-1.3-0.7-1.9c-1.5-2.4-3.3-4.6-5.6-6.6c0-2.2-1-4.6-2-6.6
			c-5.8-11.2-14.4-20.1-23.2-21.8c-0.1,5.3-4.2,9.7-8.8,12.3c-4.6,2.7-9.7,4.2-14.2,7.1c-1.1,0.7-3.2,2.3-4.8,4.1
			c-5.6,2.9-10,6.9-12.9,11.6c-0.4,0.6-0.6,1.2-0.7,1.9c-4.4,8.4-3.7,18-3.8,25.1c0.3,4.6,2.1,17.5,3.5,21.5
			c1.2-6.3,0.8-21.1,2.2-27.4c1.1-4.6,2.5-9.2,4.5-13.6c9.6-10.1,49.7-9.6,60.2,0c1.9,4.4,3.4,8.9,4.5,13.6c1.4,6.3,1,21.1,2.2,27.4
			c1.4-4.1,3.2-16.9,3.5-21.5C337.7,387.6,338.4,377.9,334.1,369.6z"/>
	</g>
</g>
</svg>
